<svg version="1" xmlns="http://www.w3.org/2000/svg" width="1140" height="1140" viewBox="0 0 855.000000 855.000000"><path d="M210.3 9.5c-13.3 3.6-24.4 9.7-31.2 17-4 4.3-9.7 14.2-8.7 15.2.5.6 4.8-.4 45.4-10.2 15.1-3.6 27.9-6.4 28.4-6.3.6.2-9 4.1-21.3 8.7-55.3 20.7-53.9 20-53.9 23.2 0 1.5.4 3 .9 3.4.5.3 7.5-2 15.6-5s15.1-5.5 15.6-5.5c.4 0 2 2.1 3.5 4.7 1.5 2.7 5.8 10 9.6 16.4 3.7 6.4 6.8 12 6.8 12.4 0 .4-2.2.5-5 .1-4.1-.6-5.8-.2-9.9 1.9-6.8 3.4-8.9 3.2-13.7-1.4-4.3-4-5.2-4.3-27.3-7.9-2.5-.4-4.6-1.2-4.7-1.7-.2-.6 1.7-2.5 4.1-4.3 2.5-1.8 4.5-3.7 4.5-4.2s-2.5-1.7-5.5-2.6c-5.8-1.9-5.1-2-18 2.4-3.3 1.1-10.3 2.6-15.5 3.2-11.9 1.5-16 2.4-28.9 6.7-20.4 6.7-34.6 15.6-50.7 31.9l-11.2 11.2-.6 17.3c-.4 9.6-1.1 36-1.6 58.7-.7 35.3-.7 41.8.6 44.7.8 2 1.9 8.3 2.5 14.2 1 9.9 1 10.8-.7 12-1.5 1.1-1.6 1.7-.6 3.3.7 1.2.8 2.1.2 2.5-1.7 1.1-1.1 3 1.9 6.1 2.1 2.2 3.2 4.9 4.5 10.9 1 4.4 3.5 15.6 5.6 25 7.8 34.9 9.2 41.6 8.8 42-.2.3-4.7-8.3-9.8-19.1-5.2-10.8-9.6-19.2-9.8-18.6-.3 1 1.5 5.2 11.7 26.5 3.4 7.1 6.1 13.1 6.1 13.5 0 .4-4.1-3.6-9.1-8.8-5-5.2-8.9-9-8.7-8.3.2.6 4.5 6 9.6 11.8 5.2 5.9 9.2 10.8 9 11-.1.2-4.1-1.3-8.7-3.2-9.5-3.9-12.5-3.7-3.5.3 3.2 1.4 7 3.1 8.4 3.8 2.1.9.9 1.2-8 1.6-12.2.6-11 2 1.8 2.1l8.7.1-8.8 4.1c-4.8 2.2-8.7 4.4-8.7 4.9 0 .4 3.7-.8 8.2-2.7 4.5-1.9 8.4-3.2 8.7-2.9.3.3-3.1 4.1-7.7 8.5-4.5 4.3-8.2 8.4-8.2 9.1 0 .7 3.4-2.1 7.5-6.2s7.5-7.1 7.5-6.7c0 .3-2.9 5.1-6.4 10.6-3.6 5.4-6.2 10.2-5.8 10.5.3.4 4.3-5.1 8.9-12.1 4.6-7 8.3-12.2 8.3-11.5 0 .7-.9 5.8-2.1 11.3-2.7 13.3-1.9 16.2.9 3.4 3.5-15.2 3.7-15.4 5.1-3.5 1.3 11.3 1.8 13.6 2.7 12.7.4-.3 0-5.3-.6-11.2-.7-5.8-1.1-10.8-.8-11 .3-.3 3.1 5 6.3 11.7 3.1 6.8 5.9 11.8 6.1 11.2.3-.6-2.3-6.8-5.6-13.8-3.3-7.1-5.9-13-5.7-13.2.2-.2 8.4 6.2 18.4 14.1 9.9 8 18.4 14.5 18.7 14.5 1.6 0-1.3-2.6-15.5-14.1-8.2-6.7-14.8-12.3-14.6-12.5.4-.5 15.6 6.2 36.7 16 13.1 6.1 13.5 6.3 13.2 9.2-.2 2.5.2 3.1 2.7 4.1 2.1.7 3.2.8 4 0 .8-.8 1.4-.8 2.3.1 1.9 1.9 3.2 1.4 5-1.6 1.2-1.8 1.8-2.2 1.8-1.1 0 1.5 2.4 1.8 20.3 2.3 11.1.4 25.8.8 32.7.8 6.9.1 13.1.6 13.8 1.1.7.5 5 1.1 9.5 1.3l8.4.3.9-5.2.9-5.2 4.8-.5c3.9-.4 5-1 6.6-3.5 1.7-2.9 3.2-3.4 34-11.8 17.8-4.9 32.5-8.7 32.7-8.4.3.3-14.9 8.9-48.3 27.1-11.1 6.1-16.3 9.7-11.6 7.9 1.8-.6 30.2-16 35.8-19.3 5.6-3.3 25.8-14 26.1-13.7.1.1-8.1 7.6-18.2 16.7S270 406.9 270 407.3c0 1.2 5.1-3 23-19.2 8.5-7.6 15.7-13.7 15.9-13.5.3.3-4.6 8.4-16.3 26.6-2 3.2-3.2 5.8-2.7 5.8s5.8-7.6 11.7-16.9c6-9.4 11-16.8 11.2-16.6.3.3-2.2 14.3-4.2 23.7-.2 1-.1 2 .4 2.3.4.2 1.7-4.9 3-11.5 1.2-6.6 2.5-12.2 3-12.5.4-.2 1.3 5 2 11.6s1.7 12.2 2.2 12.5c1 .7 1-.9-.6-13.6-.8-5.8-1.2-10.7-1-10.9.2-.2 1.3 1.8 2.4 4.4 4.8 11.2 9.4 20.7 9.7 19.8.2-.5-1.7-5.6-4.2-11.3-2.5-5.7-4.3-10.5-4.1-10.7.2-.2 4.1 4.8 8.6 11.2 4.6 6.3 8.7 11.5 9.2 11.5 1.2 0 .9-.3-8.2-13-9.2-12.7-9.8-13.6-7.9-12.5.8.5 7.9 6 15.9 12.3 8 6.3 15.1 12 15.8 12.5.7.5 1.5.8 1.8.5.2-.3-2.7-3.1-6.6-6.2-12.1-9.7-21.1-17-23.9-19.4-2.5-2.2-2.4-2.1 3.4.4 3.3 1.4 6.9 2.9 8 3.4 1.9.8 10.8 4.8 27.7 12.7 6.9 3.2 7.7 3.9 7.2 5.8s0 2.5 2.8 3.3c8.9 2.7 7.9 3.4 14-9.6 6.5-13.7 11.7-29.4 15-44.7 2-9.6 2.3-13.7 2.3-32.5-.1-23.5-1.4-32.5-7.1-46.7-5.8-14.6-15.9-25.8-28-30.9-6.6-2.7-7.6-2.9-21.9-2.9-14.1.1-15.5.2-23.7 3.1-10.1 3.5-9.9 3.6-6.9-6.1 7.5-23.3 10-31.9 9.6-32.3-.2-.2-4.9.2-10.5 1-5.5.7-10 1.2-10 1 0-.7 7.2-11.3 12.8-18.7l6.1-8-5.2-.3c-5.8-.4-5.7-.5-15.5 12.8-2.7 3.6-5.5 6.4-6.3 6.3-1.6-.2-9.8-2.4-17.1-4.7l-4.8-1.5v6.2c0 3.4-.3 7.8-.6 9.8l-.6 3.6-7.7 1.1c-4.2.6-8.5 1.3-9.6 1.6-1.1.2-4.8.7-8.2 1.1l-6.1.7-6.2 12.1c-3.4 6.7-6.8 12.8-7.5 13.6-1.5 1.6-1.7 1.4-9.4-15.7l-5.1-11.3 6.3-5.9c3.4-3.2 5.9-6.1 5.6-6.4-.4-.4-3.7 2.2-7.3 5.6l-6.8 6.3 7.1 15.4c3.9 8.5 7.1 16 7.1 16.6 0 .7-1.3 3.6-3 6.6-3.3 5.9-3.7 7.9-1.7 7.9 2.2 0 23.6 7 24.1 7.8.3.4-2.6 4.8-6.3 9.7-3.7 5-17.7 23.6-31.1 41.5-13.3 17.9-25 33.3-26 34.3-1.7 1.8-2.1 1.7-12.3-2.3-6.7-2.6-10.8-4.8-11.2-5.9-.6-2-6.6-8.4-11.3-12.1-3.1-2.4-3.2-2.7-3.2-10.2 0-14-4.6-31.5-11.2-42.5-4.5-7.6-11.3-14.5-18.4-18.4l-5.9-3.4 3.8-.3c8-.7 20.5 9.6 26.7 21.8 4.1 8.1 7.9 23 8.8 34.5l.7 9 3.3-8.8 3.2-8.9-2.5-10.1c-4.2-17.2-12-30.6-22-37.9-2.4-1.8-4.4-3.5-4.5-3.8 0-.3 4.6-1.5 10.3-2.8 5.6-1.3 14.4-3.5 19.5-4.9 8-2.2 9.5-3 10.4-5.2 1.7-4.3 4.1-8.6 5.2-9.3 2.5-1.6-.6-1.6-9.4.1-9.8 2-16.6 2.9-25.7 3.7-6.3.6-6.4.4-2.8-9.3 1.4-3.7 4.8-12.9 7.4-20.3 2.7-7.4 5.8-15.9 7-18.8 1.1-2.9 2.1-5.7 2.1-6.2s-2.4-1.3-5.2-1.9c-9.6-2-40.2-6.1-45.8-6.1-7-.1-4.9-1.5 4.2-3 5.8-.9 7.2-.8 11.2 1 4.6 1.9 4.7 1.9 13.4 0 4.8-1 14.3-3.1 21.2-4.5 16.7-3.5 16-3.3 16-6.1 0-1.7 1-3 3.3-4.4 6.1-3.8 19.3-7.8 27.3-8.5 15.6-1.3 14.4-.7 30.5-15.5 8.1-7.4 14.8-13.8 14.8-14.1.1-.3-3.8-2.7-8.6-5.4s-10.6-6.8-13-9.1c-4-3.7-6.2-5-14.3-8.1l-2.4-1 2.8-1.8c2.4-1.6 3.4-1.7 8.9-.7 5.1.9 13.6 1.9 30.2 3.5 1.7.2 2-.5 2.3-4.6.2-3.3 0-4.7-.7-4.2-.6.3-1.1 1.9-1.1 3.4s-.2 3-.5 3.3c-.3.2-3.1.1-6.2-.3-21.3-2.8-19.7-2.1-18.9-7.7.3-2.6 1.5-12.3 2.5-21.5 1.1-9.3 2.1-17.1 2.4-17.3.5-.5 11.7-4.8 19-7.2 4.2-1.4 4.9-1.4 5.7-.2 1.6 2.5 1.1 6.6-1 8.5-1.1 1-2 2.1-2 2.5 0 .4 2 3.8 4.4 7.5 2.4 3.8 4.2 7.4 3.9 8.1-.3.7-1.6 1.7-3.1 2.2-2.2.7-2.6 1.4-2.7 5-.1 2.9-.8 4.9-2.5 6.7-2.8 3-1.3 3.3 2.3.5 1.9-1.5 2.5-2.8 2.4-5.7-.1-2.5.4-4 1.7-4.7 6-3.5 6-3.5 1.1-11-2.5-3.8-4.5-7.3-4.5-7.9 0-.5.8-1.9 1.8-3.2 1.7-2.2 1.8-2.9.5-9-3.1-15.3-15.1-24.6-31.6-24.4-3.9 0-9.5.7-12.4 1.4zm-64.4 67c.1-1.7.3-1.7 1.1-.5 1.2 1.9 1.3 3.3.1 2.5-1.6-.9-2.4 1.5-1 3.1 1 1.2.9 1.3-.5.8-1.2-.5-1.5-.2-1 1 .4 1.1.1 1.6-1 1.6-1.4 0-1.5-.3-.5-2.2.7-1.2 1.2-3.6 1.1-5.3 0-2.5.1-2.7.8-1l.9 2v-2zm-4.6 4.4c.3 1.3.1 1.8-.9 1.4-.7-.2-1-1.1-.7-1.9.7-1.9 1-1.8 1.6.5zm-31 5.9c-.4.9-.2 1.3.4.9.6-.4 1.3.4 1.5 1.8l.5 2.5-2.1-2.2c-1.1-1.3-2.2-3.6-2.2-5.2-.1-2.7 0-2.8 1.2-1.2.7 1 1 2.5.7 3.4zm-5.5.3c.8 1.2 1 1.9.5 1.7-.4-.3-1.6-.8-2.6-1.1-1-.4-1.5-1.1-1.2-1.7.9-1.5 1.9-1.2 3.3 1.1zm77.7-.1c.3.5-.4 1.1-1.5 1.5-1.2.4-2 1.5-2 2.7 0 2.1.1 2.1 2 .3 2.9-2.6 4.7-.7 2.9 3.1-1.8 3.5-3.9 4.2-4.6 1.5-.6-2.3-2.3-2.9-2.3-.7 0 .8.7 1.7 1.6 2 .8.3 1.2 1.1.9 1.7-1 1.6-3.8-2.8-3.2-5.1.3-1.2 0-1.7-.8-1.4-1.7.7-2.5-2.9-.9-4.4 1.9-1.7 2.9-1.5 1.4.3-.7.9-1.1 1.8-.8 2 .3.3 1-.5 1.7-1.8 1.2-2.3 4.6-3.3 5.6-1.7zM106 90.5c0 1.2-1.9 1.2-2.3 0-.4-.9-.1-1.2.9-.8.7.3 1.4.7 1.4.8zm3.7 3.8c.7 0 1 .4.7.9-.3.5-1 .6-1.5.3-.5-.4-.9-.1-.9.6 0 .8-.4.8-1.5-.1-2.1-1.7-1.9-3.4.3-2.5.9.4 2.2.8 2.9.8zm27.8 5.5c0 .6.3 1.3.7 1.7.4.4.4 1.4.1 2.3-.3 1.2-.2 1.3.4.5.5-.7 1.6-1.1 2.5-.9 2 .2 3.7 1.6 2.1 1.6-.6 0-.8 1.2-.6 2.7l.4 2.8-2.1-2.4c-1.8-2.1-2.3-2.3-3.1-1-.7.9-1.2 1-1.5.3-.3-.6-1.6-.9-3-.6-2.3.4-2.5.2-1.6-1.4.5-1.1.7-2.5.5-3.2-.6-1.6.5-1.5 2.2.2.8.7 1.1 1.7.7 2.1-.4.5-.1.5.6.1 1.1-.6 1-1.2-.2-3.2-2-3-2-3.3.2-3 .9.2 1.7.8 1.7 1.4zm3.5 1.3c0 .5-.4.9-1 .9-.5 0-1-.7-1-1.6 0-.8.5-1.2 1-.9.6.3 1 1 1 1.6zm3-.1c0 .5-.4 1-1 1-.5 0-1-.5-1-1 0-.6.5-1 1-1 .6 0 1 .4 1 1zm-79 3.5c-.9 1-.9 1.5-.1 1.5 1.5 0 1.4 2.7-.1 3.6-.7.4-.8.3-.4-.4s.3-1.2-.3-1.2c-.5 0-.8-.6-.7-1.3.2-1.5 1.5-3.7 2.3-3.7.3 0 0 .7-.7 1.5zm35.3 2.3c1 .9 1.5 2.2 1.1 3.1-.5 1.4-.7 2.3-1.4 5.1-.3 1.7-1.9-3.1-1.5-4.9.2-1.1-.1-2.1-.6-2.1-.6 0-.8-.4-.5-.9.4-.5-.1-.8-1.1-.7-.9.2-1.7 1-1.9 1.9-.1 1 .3 1.4 1.2 1 1.6-.6 1.8 1.4.5 3.6-.6.9-1.4 1.1-2.6.3-1-.5-2.6-.7-3.6-.5-1.5.4-1.9 0-1.9-1.8 0-1.3.5-3.1 1-3.9.8-1.3 1.1-1.1 1.6.7.8 2.9 2.4 2 2.4-1.4 0-2.2.3-2.4 2.8-1.8 1.5.3 3.5 1.4 4.5 2.3zm-27.4 2.6c1 1.2.9 2.1-.3 4.4-1.4 2.8-4.5 5-4.7 3.4-.6-3.4-.4-5.3.6-6.2.9-.8 1.1-.3.9 1.7l-.4 2.8 1.4-3c1.5-3.2 1.2-4.9-.8-4.2-.7.3-1.3-.1-1.3-.8 0-1.6 2.6-.5 4.6 1.9zm119.4.4c-.2.6.4.9 1.2.6 1.1-.5 1.5.1 1.5 1.9 0 1.4.5 2.9 1 3.2 1.2.8 1.3 3.5.1 5.4-.7 1-1.3 1.1-3 .2-1.1-.7-2.1-1.6-2.1-2.2 0-.6.8-.3 1.8.7 1.5 1.6 1.7 1.6 2 .1.2-.9-.2-2.4-.8-3.4-.9-1.5-1-1.4-.4.7.6 2.2.5 2.3-.9 1.2-1-.9-1.7-1-2.2-.2-.4.7-1.4.1-2.6-1.5l-2-2.5 2.1-3c2.1-2.9 4.8-3.6 4.3-1.2zm41.7-.7c0 .7-2.4 4-5.2 7.4-2.9 3.4-7.5 9-10.3 12.3-2.7 3.4-5.3 6.2-5.7 6.2-1.9 0-.3-3 4.7-8.9 5.6-6.6 6.5-8.8 2.2-5.5-1.4 1.1-6.1 4.7-10.6 8.1-8.5 6.6-9.4 7.2-8.9 4.9.4-1.6 30.7-25.4 32.6-25.5.6-.1 1.2.4 1.2 1zm-171.5.9c-.3.5.5 1.5 1.9 2.1 1.4.7 2.3 1.6 2 2-.6 1-6.4-3-6.4-4.3 0-.4.7-.8 1.6-.8.8 0 1.2.4.9 1zm136.5 4.5c1.1 1.3 1.1 1.8 0 2.8-1 .9-1.2.9-.8-.3.3-.8-.2-2-1.1-2.7-.9-.7-1.1-1.3-.5-1.3.6 0 1.7.7 2.4 1.5zm-72.6 7.7c-.4.6-.3.8.4.4.6-.3 1.7.1 2.6 1 1.3 1.2 1.4 2 .4 3.7-1.1 2.1-1.1 2.1-1.9.2-.8-2.1-1.3-.7-1 2.7.3 2.2-1.3 2.3-3.3.2-.9-.8-1.6-1.2-1.6-.8 0 .4-1.8-1.1-4-3.4-3.9-3.9-5.5-6.7-2.5-4.2 1.3 1 1.9.8 3.6-1.4 2-2.5 2.1-2.5 5-1 1.7.8 2.7 2 2.3 2.6zm29-.8c-.1 1 .1 1.5.4 1.2.3-.4 1.4 1.1 2.3 3.1l1.8 3.8-3.7 2.2c-2 1.3-3.9 2.3-4.3 2.3-.3 0-1.6-2.4-2.9-5.3-1.3-2.8-2.5-5.4-2.7-5.7-.2-.3 1-1.1 2.7-1.7 1.7-.6 3.2-.7 3.5-.2.3.4-.6 1.1-2 1.5-1.3.3-2.2 1-1.9 1.5.9 1.5 5.3-2.1 4.7-3.8-.4-1.1-.2-1.4.8-1.1.8.3 1.3 1.3 1.3 2.2zM92.5 130c-.3.4.2 1 1 1.4.8.3 1.5 1.3 1.5 2.2 0 1.1-.5 1.4-1.6 1-1-.4-1.4-.1-1.2.6.3.7 1.4 1.4 2.6 1.6 2.6.4 3 3.2.4 3.2-1 0-2.8.7-4.1 1.6-1.9 1.4-2.5 1.4-3.2.3-.5-.8-.9-2.2-.9-3.1 0-.9-.5-2-1.1-2.3-.6-.4-.8-1.4-.5-2.2.3-.8.1-1.1-.4-.8-.6.3-1-.1-1-.9 0-.9.8-1.6 1.8-1.6s2.7-.6 3.7-1.4c2-1.4 4-1.2 3 .4zm-36.2.4c2.6.6 3.9 3.6 1.6 3.6-.6 0-.9.9-.6 2 .3 1.1.1 1.7-.4 1.4-.5-.3-1.2.2-1.5 1-.3.9-1 1.3-1.5 1-.5-.3-.7-.9-.4-1.3.2-.5-.6-.6-1.9-.4-2.9.6-6.1-2.3-4.6-4.1.5-.7.6-1.7.2-2.1-.4-.5-.2-.5.5-.1s1 1.3.6 2.1c-.4 1.1-.1 1.3 1.1.9 1.1-.4 1.6-.1 1.6 1.1 0 1.3.3 1.5 1.3.6.8-.6 1.7-.8 2-.4.4.3.7-.3.7-1.5 0-2.3-1.6-3-2.2-1-.6 1.8-2.8 0-2.8-2.3 0-1.5.5-1.9 1.8-1.6.9.3 2.9.8 4.5 1.1zm118.1.8c.9-1.4 7.6 1.1 7.6 2.8 0 2.5-1.7 4.3-3.1 3.5-1.1-.6-1.2-.5-.1.6 1.9 2.1 1.5 2.5-2.8 2.1-2.2-.2-4-.8-4-1.4 0-.5-.9-.6-2-.3-2.5.8-2.7-2.2-.4-6.7 1.5-2.9 1.8-3 2.9-1.4.7.9 1.6 1.3 1.9.8zm-31.2 10.3c.4.5.2 1.3-.5 1.7-.8.5-.6.8.7.8 1.5 0 1.6.3.6 1.5-.7.9-1 1.8-.6 2.2.3.3.6.1.6-.6s.4-1 .9-.6c.5.3.8 1.8.7 3.3-.2 1.5-.5 2.5-.8 2.2-.2-.3-1.6.3-3.1 1.2-2.6 1.8-2.7 1.7-3.9-.5-1.9-3.4-3.7-9-3.2-9.8.2-.5 1.1-.6 1.8-.3s1.8-.2 2.5-1c1.4-1.7 3.2-1.7 4.3-.1zm-21.1 6.7c2.5.9 2.6 1.2 1.7 4.6-1.4 5.2-1.8 5.6-3.4 3.5-1.1-1.4-1.3-1.5-1.4-.3 0 1.1-.3 1.1-.8.3-.4-.6-1.4-1.1-2.2-1.1-5.2.3-6.3-1.7-4-7.6 1-2.7 1.6-2.7 10.1.6zm-49.6 8.7c-1.2 1.2-10.3 2.2-10.9 1.2-.3-.4.6-2 1.9-3.7 1.6-1.9 2.4-2.4 2.5-1.4 0 .9-.5 2.1-1.1 2.7-.9.9-.7 1.2 1 1 1.5-.1 1.9-.6 1.5-1.9-1-3.4.7-4.1 3.4-1.4 1.7 1.6 2.3 2.9 1.7 3.5zM369 244.6c18 8.6 27.9 29.9 29.5 63.6.5 9.5.4 11.9-.5 10.5-.7-1-.9-2.8-.6-4 .3-1.1.1-6.5-.4-12-1.1-11.3-5-23.8-10.1-32.3-3.8-6.3-11.9-14.7-17.6-18.1-12-7.4-29.4-8.3-45.8-2.4-12.9 4.6-12.8 4.6-12.3 3 .6-2.2 10.9-6.9 20.6-9.6 7.1-1.9 10.7-2.3 19.7-2 9.9.2 11.6.5 17.5 3.3zm-15.1 11.3c1.3.8 1.1 2-1.2 7.8-1.4 3.7-7.2 19.2-12.7 34.3-17.2 46.7-22.3 60.1-22.7 59.7-.2-.3.5-11.6 1.7-25.3 1.1-13.7 2.9-35.6 3.9-48.8 1-13.1 2.3-24.2 2.8-24.7 2.8-2.8 24.9-5.1 28.2-3zm8.4 2.7c7.8 4.1 18.8 16.6 18.7 21.4 0 .8-10.6 15-23.5 31.5s-26.7 34.2-30.6 39.3c-6.9 9.1-9 10.9-7 6.1.6-1.3 4.9-13 9.7-25.9 4.7-12.9 12.2-33 16.5-44.7 4.4-11.7 7.9-21.4 7.9-21.6 0-1.6 3.2-7.7 4.1-7.7.5 0 2.4.7 4.2 1.6zm-258.9 0c.9.3 1.6 1 1.6 1.5 0 1.3-36.9 93.8-38.6 96.9-1.4 2.4-1.4 2.2-.9-2.5.3-2.8 1.8-22.3 3.5-43.5s3.4-40.8 3.8-43.5l.7-5 8-2.2c7.8-2.1 18.7-2.9 21.9-1.7zm13.6 5.8c4.1 2.9 14 14.6 14 16.5 0 .8-51.7 65.6-58.8 73.7-2.4 2.7-4.1 4-3.7 2.9.3-1.1 9.2-23.5 19.7-49.8 19-47.8 19.1-47.8 21.7-47.2 1.4.4 4.6 2.1 7.1 3.9zm205.6 2.8c-.8 10-2.2 26.4-4.6 58.8-1.2 15.1-2.5 28.8-2.9 30.5-.6 2.6-.9 2.1-2.4-4.5-.9-4.1-3.9-17.2-6.7-29-7.1-30.2-10.4-45.9-9.7-46.6.3-.3 1.5 0 2.7.6 3.2 1.7 4.3.8 6.4-4.9 1.7-4.8 2.3-5.4 8.5-8.6 9.5-4.9 9.5-4.9 8.7 3.7zm-251.6-2c.1 3.7-7.2 90.5-7.7 91.8-.3.8-3.8-13.4-7.9-31.5-4-18.2-8-36.3-9-40.3-1.4-6.3-1.5-7.6-.3-8.7C47.7 274.9 68.5 264 70 264c.5 0 1 .6 1 1.2zm193.1.9c1.9.7 3.6 1.3 3.8 1.5.2.2-3.5 4.4-8.2 9.4-14 14.6-25.6 33.8-35.2 58-2.1 5.2-3.9 9.6-4 9.8-.1.1-1.9-.5-4.1-1.4-2.1-.9-6.3-2-9.2-2.3l-5.4-.6 10.9-14.5c6-8 18.7-25 28.2-37.8 9.5-12.7 17.9-23.2 18.5-23.2.7 0 2.8.5 4.7 1.1zm16.9 6.3c0 .2-2.8 2.7-6.3 5.4-10.6 8.3-23.3 25.4-33.8 45.6-3.2 6.1-5.9 10.7-5.9 10.3 0-2.3 10.9-23.3 16.7-32.1 6.9-10.5 24.8-29.6 27.7-29.6.9 0 1.6.2 1.6.4zm21.9 44.1c5.2 22.3 9.2 40.8 9 41-.3.2-6.4-10.5-13.6-23.8-20.2-37-23.5-43.6-22.8-44.6.7-1.3 16.6-13.1 17.4-13.1.4 0 4.9 18.2 10 40.5zm82.7-25.9c1.2 3.8 2.5 10.8 2.9 15.5l.7 8.6-22.9 15.8c-12.5 8.7-25.7 17.9-29.3 20.3-3.6 2.5-8.6 6.1-11.2 7.9-2.7 1.9-4.8 3.3-4.8 3 0-1.7 60.4-78.7 61.5-78.3.5.1 1.9 3.4 3.1 7.2zm-251.3-1.9c2.3 6.5 4.7 17.9 4.7 22.9v4.2l-34.1 22.6c-18.8 12.5-34.3 22.6-34.5 22.3-.5-.5 60.6-76.7 61.5-76.7.4 0 1.5 2.1 2.4 4.7zm153.5 29c21.7 40.1 22.2 41 22.2 41.9 0 .5-11.2-10.4-25-24.1-13.7-13.7-25-25.5-25-26.1 0-1.3 12.1-17.4 13.1-17.4.4 0 7 11.6 14.7 25.7zm-4.1 18.5c13.4 13.4 24.3 24.6 24.3 25.1 0 .4-3.3-1-7.2-3.1-29.8-16.1-50.5-27.3-51.6-28.1-1.1-.7-1.1-1.4.3-4.2 2.9-5.5 8.4-13.9 9.2-13.9.4 0 11.7 10.9 25 24.2zm-144.5-8.9c-.9 12.3.1 11.6-34.5 23.9-16.6 5.9-30.3 10.6-30.5 10.3-.2-.2 14.1-10 31.9-21.9 18.7-12.4 32.6-21.1 33-20.5.3.6.4 4.3.1 8.2zm249.4-3.1c-.4 3.5-.9 8.3-1.2 10.8l-.5 4.5-24.2 8.9c-13.3 4.9-27 10-30.5 11.4-3.5 1.3-6.5 2.2-6.8 2-.2-.3 6-5 13.8-10.5 13.1-9.1 18.9-13.1 40.8-28.2 4.1-2.8 7.8-5.1 8.3-5.1.5 0 .6 2.8.3 6.2zm9.1 3.5c-.2 1.6-.4.5-.4-2.2 0-2.8.2-4 .4-2.8.2 1.3.2 3.5 0 5zM152 330c3.2 2.6 8 8.6 8 10.1 0 .3-1.7.3-3.8.1-2.5-.2-4.2.1-5 1.1-1.6 1.9 1.6 5.9 10.8 13.2 4.5 3.6 7 6.4 7.4 8.2.4 1.5 1.2 4.1 1.8 5.7 1.1 2.8 1.2 2.8 7.2 2.1 3.4-.3 7.1-.9 8.4-1.2 3.8-.9 2.4 1.4-3.8 6.3-9.3 7.3-8.1 9.5 3.5 6.5 4.1-1 7.5-1.5 7.5-.9 0 .5-1.2 2-2.7 3.3-2.5 2.1-2.6 2.5-1.3 3.9 1.3 1.3 2.3.7 8.5-4.9 5.7-5.2 6.7-6.5 5.7-7.7-1-1.3-2.1-1.2-8.4.3-4 1-7.4 1.6-7.6 1.4-.2-.2 3.3-3.3 7.8-7 4.4-3.7 7.9-6.9 7.8-7.1-.2-.2-4.4.3-9.3 1.1-14.9 2.4-15.4 2.1-6.5-4.3 6.4-4.7 6.7-4.7 12.9-.7 2.3 1.4 7.8 4.5 12.4 6.9 15.4 8.1 25.2 14.2 25.5 15.8.2.9-.7 4-1.9 6.9l-2.3 5.2-12-.8c-6.7-.4-17-.9-23.1-1.1-6-.1-14.4-.5-18.5-.8-4.1-.3-18.1-.8-31-1.2-12.9-.4-24.4-1-25.6-1.4-1.9-.8-2-1.3-1.4-6.7.4-3.2 1-7.3 1.4-9.1.5-2.1.4-3.2-.3-3.2-.6 0-1.1.9-1.1 1.9 0 1.1-.4 2.2-.9 2.5-.5.3-11.4-1.1-24.2-3.1-26.6-4.3-26.5-4.5 2.1-6.2 10.2-.7 19.8-1.4 21.3-1.6 2.1-.4 3 0 3.5 1.6.6 1.6 1.3.4 3.1-5.3 3.8-12 16-32.8 19.2-32.8.6 0 2.8 1.4 4.9 3zm110 9c4.7 2.6 11.9 6.5 16 8.7 4.1 2.3 11.8 6.4 17 9.3 9.2 5 13.7 8.1 9.6 6.6-1.1-.4-9.2-2.4-18-4.5-8.9-2.2-23-5.6-31.3-7.6-8.4-2-15.3-4.1-15.3-4.7 0-.5 1.6-4.3 3.5-8.4l3.4-7.5 3.3 1.7c1.8.9 7.1 3.8 11.8 6.4zm124 5.7c-.1 3-2.5 15.1-3.2 15.8-.6.7-52.6 4.7-55.7 4.3-2.7-.3 2.3-2.4 33.9-14 7.4-2.8 15.8-5.8 18.5-6.9 6.5-2.4 6.5-2.4 6.5.8zm-257.2 8.7c-3.3 8.4-3.3 8.5-6.8 8.6-1.9 0-12 .7-22.5 1.5-29.4 2.3-29.4 2.3-12.5-4 8-2.9 20.4-7.4 27.5-9.9 7.2-2.6 13.9-5 15-5.5 1.1-.5 2.1-.5 2.3 0 .2.4-1.2 4.6-3 9.3zm34.5-7.7c1.1.6 2.9 5.4 2.3 6-.6.6-8.6-5.8-8.6-6.9 0-.8 4.4-.1 6.3.9zm50.7 1.6c4.2 1.4 4.5 3.6.9 5.6-2.5 1.4-3.1 1.3-7.9-1.2-6.4-3.3-8.2-3.4-7.8-.5.3 2 5.3 6 14.4 11.4 1 .7 1.6 1.5 1.2 1.9-.5.5-19.2-9-21.7-11.1-.2-.2.8-1.9 2.3-3.9 2.6-3.4 3-3.5 8.9-3.4 3.4 0 7.8.5 9.7 1.2zm-39.2 3.3c3.4 1.5 6.2 3 6.2 3.4 0 1.4-8.3 2.9-10.2 1.9-2.5-1.4-5.1-7.9-3-7.9.4 0 3.5 1.2 7 2.6zm97.9 6.7c16.1 4 29.6 7.7 30 8.1.5.4-14.8.6-33.9.5-39.3-.4-36.4.4-33-8.6 1.1-2.6 2.2-5.6 2.5-6.6.5-1.2 1.3-1.6 2.9-1.2 1.3.3 15.5 3.8 31.5 7.8zm-85.2-4.3c-.3.5-1 1-1.6 1-.5 0-.9-.5-.9-1 0-.6.7-1 1.6-1 .8 0 1.2.4.9 1zm-6.5 6.9c0 .5-1.2 1.8-2.7 2.9-5.1 3.5-5.6 3.6-3.8.8 2.4-3.6 6.5-6 6.5-3.7zm-7 2c0 1.2-2 2.5-2.7 1.8-.7-.7.6-2.7 1.8-2.7.5 0 .9.4.9.9zm208 2.3c0 .7-.6 3.5-1.4 6.3-1 3.9-1.7 5-3.2 4.8-4.5-.4-19.1-2.5-34.9-5-19.9-3.1-19.4-3.4 8-5.3 9.9-.7 18.2-1.4 18.4-1.6.2-.2 3.3-.4 6.8-.4 4.4 0 6.3.4 6.3 1.2zm-99.6 3.7c.8 1.3-1.4 1.9-11.4 3.3-7.6 1-10.4.9-19.7-.6-5.9-1-11.2-2.2-11.7-2.7-.6-.5 7.4-.9 20.6-.9 11.9 0 21.9.4 22.2.9zm23 .5c.5.1-3.8 1.5-9.5 3-5.7 1.6-18.9 5.2-29.4 8.1-10.4 2.9-20.7 5.8-22.8 6.3l-3.8 1.1.6-3.2c.6-3 .3-3.4-4.4-6.2-4.9-2.8-6.2-4.7-4.2-6 .6-.3 4.3.4 8.3 1.6 4.9 1.4 11.4 2.3 19.8 2.6 10.9.5 13.6.2 20.8-1.7 6.2-1.7 8.2-2.6 8.2-3.9 0-1 .2-2 .4-2.2.5-.4 14.1 0 16 .5zM98 373.1c11.3 1.6 21.3 3.2 22.3 3.5 1.5.5 1.6 1.4 1.1 7.5l-.7 6.9h2.7c1.6 0 2.6.5 2.6 1.5 0 .8-.2 1.5-.4 1.5-.8 0-51.2-23.2-51.9-23.9-.5-.5.2-.7 1.5-.5 1.3.2 11.5 1.8 22.8 3.5zm255 .5c13.5 2 24.7 3.8 24.9 4 .7.6-3.4 13.6-4.5 14.1-1 .4-14.7-5.5-34.9-15.1-5-2.4-10.1-4.6-11.3-5-2.6-.9-3-3-.4-2.2.9.2 12.7 2.1 26.2 4.2z"/><path d="M181 93.9c0 .6.5 1.3 1 1.6.6.3 1-.1 1-.9 0-.9-.4-1.6-1-1.6-.5 0-1 .4-1 .9zM189 113.9c0 1 1.9 2.5 2.5 2 .1-.2-.3-1-1.1-1.7s-1.4-.8-1.4-.3zM120.7 119.7c-.4.3-.7 1.1-.7 1.7 0 .6.5.5 1.2-.2.6-.6.9-1.4.7-1.7-.3-.3-.9-.2-1.2.2zM122.8 123.7c.7.3 1.6.2 1.9-.1.4-.3-.2-.6-1.3-.5-1.1 0-1.4.3-.6.6zM120.7 126.1c.4 1.3.8 1.8 1.1 1 .2-.7-.1-1.8-.6-2.3-.8-.8-.9-.4-.5 1.3zM152.9 124.7c-.1.5-.1 1.2 0 1.7.1.4-.4 1.6-1.1 2.5-1.2 1.4-1.1 1.4.4.3.9-.7 1.6-2.2 1.5-3.3-.1-1.9-.6-2.6-.8-1.2zM170.7 135.2c-.6 2 .9 2.5 1.6.5.3-.6.6-.2.6 1 .1 1.5.7 2.1 2 2 1.1 0 1.7-.5 1.5-.9-.3-.5-1-.5-1.6-.2-.7.4-.8.2-.4-.5.4-.6 1.1-.9 1.6-.6 1.2.7 2.3-1.2 1.4-2.6-.4-.8-.9-.7-1.5.2-.6.9-.9 1-.9.2 0-1.9-3.8-1.1-4.3.9zM138 144.9c0 .5.5 1.3 1 1.6.6.3 1 .2 1-.4 0-.5-.4-1.3-1-1.6-.5-.3-1-.2-1 .4zM142 150.5c-1.1 1.3-1 1.4.4.9.9-.3 1.6-1 1.6-1.5 0-1.3-.6-1.1-2 .6zM115 154.1c0 .5.5.7 1 .4.6-.3 1-.8 1-1.1 0-.2-.4-.4-1-.4-.5 0-1 .5-1 1.1zM130.5 363.7c.4 1 2 5.4 3.7 9.8 1.6 4.4 3.3 8.4 3.7 8.8.8.8 21.1-4.2 21.1-5.2 0-.4-6.6-3.9-14.6-7.9-10.6-5.3-14.5-6.8-13.9-5.5zM646 35.6l-10.5 3.7-88 .5c-48.4.2-88.1.5-88.2.6-.1.1-1 47.5-1.8 96.1-.3 17-.8 47.2-1.1 67l-.6 36 2.5 5.7c2.5 5.6 2.6 6.7 3.1 31.5.3 14.2.6 47.9.6 74.9v49l36.3 1.2c61.5 2.1 64.9 2.2 76.7 2.7 6.3.3 21 .7 32.5 1 11.6.3 23.1.8 25.7 1.1l4.7.5.7-3.7c1.1-5.8-.3-21.2-2.5-28.9-3.8-12.9-11.3-26.8-20.4-37.8-2.9-3.5-3.7-5.1-2.9-5.9.8-.8 1.6-.7 2.8.2 2.8 2.4 13.2 17.7 16.8 24.7 7 14 11.4 33.8 10 45l-.7 5.6 4-2.4c9.4-5.8 34.8-21.7 46.1-29 6.8-4.3 13-7.9 13.8-7.9 2.7 0 1.4 2.8-2.3 5.1-6.9 4.1-33.6 21.1-44.3 28-5.8 3.8-9.8 6.9-9 6.9.8.1 18.1.7 38.5 1.5 20.3.7 37.3 1.1 37.7.9.4-.3 1.2-2.3 1.8-4.4l1.1-4h91.2l-.6-49.3c-.4-27-1-72.2-1.3-100.2l-.6-51-4.6-5.9-4.5-6 1.7-20c.9-11.1 1.9-22.5 2.2-25.4l.5-5.2h-4.4c-7.3 0-10.7-1-10.7-3.2 0-1.7.4-1.8 3.8-1.1 3.8.8 13.2.7 14.1-.2.2-.3-.1-1.1-.7-1.7-.7-.7-1.2-2-1.2-2.9 0-.9-3.1-6.4-7-12-3.8-5.7-7-10.9-7-11.5 0-.6 3.5-2.4 7.8-3.9 8.2-3 9.2-3.8 9.2-7.2 0-2-7.7-8.7-12.3-10.5-1.4-.6-9.8-5.9-11.6-7.5-.3-.2.9-1.8 2.7-3.6 1.7-1.7 4.3-4.9 5.9-6.9 1.5-2 6.6-8.3 11.1-13.8 4.6-5.6 8.2-10.4 7.9-10.6-.3-.3-4-.7-8.3-.8-22.9-1-71.1-3.5-79.9-4.1-3.8-.3-19.1-1.2-34-2-14.8-.8-30.4-1.7-34.5-2-6.8-.5-8.5-.2-18 3.1zm122.8 12.2c-4.1 4.2-7.5 9.7-10.3 16.2-1 2.5-2.2 4.9-2.6 5.3-.4.5-2.8-2.8-5.5-7.2-2.6-4.5-5.3-8-5.8-7.8-1.6.5-30.6 39.2-29.7 39.5.4.1 7.2-1.1 15-2.8 7.8-1.6 14.4-3 14.7-3 .3 0 .4.8.2 1.7-.2 1.2-2 2.2-5.3 3l-5 1.2 7.2-.4c4-.3 7.5-.1 7.8.4.3.5 2 6.5 3.9 13.3l3.4 12.3 1.7-4c1-2.2 3.8-8.3 6.3-13.5l4.5-9.5.6 4.5c.4 2.5 1.6 6.1 2.8 8.1 2.9 4.6 11.4 12.6 18.1 16.9 3.4 2.2 5.1 3.9 4.8 4.9-4.6 16.9-5.6 35.3-5.6 97.2 0 58.2 1.1 97.4 4.6 160.1l.6 10.6-2.7 1.8c-1.4.9-2.7 1.5-2.9 1.3-4.6-5.5-21.4-39-28.6-57.3-5.5-14-16-45-16-47.4 0-.8.9-2.9 2-4.7 3.1-5 5.2-14.8 4.7-21.8-.5-5.3-.9-6.4-3.6-8.7-4-3.3-3.9-3.9.7-3.3 2.7.4 4.4 0 6.1-1.4 3-2.5 2.4-5.8-2.1-10.8l-3.1-3.6 3.6-3.7c4.2-4.3 4.5-6 1.8-9.3-1.3-1.7-1.7-3.3-1.3-6.4.4-3.6.1-4.5-2.2-6.2-1.4-1.2-2.6-2.8-2.6-3.6 0-2.4-4-4.7-8-4.7-2.4 0-4.2-.8-5.9-2.5-1.3-1.4-2.7-2.5-3.1-2.5-.5 0 .4-2.5 1.8-5.5 1.5-3 2.9-5.5 3.2-5.5 1.6 0 3.3 2.2 4.4 5.5 1.3 3.7 1.4 3.7 2.5 1.7 1.4-2.6 5.3-2.9 7.5-.6 1.2 1.2 1.3 2 .6 3.5-.9 1.6-.7 1.9 1.3 1.9 3.1 0 4.7 1.8 4.7 5.2 0 2.3-.4 2.8-2.4 2.8-3.5 0-4.1 1.7-.8 2.5 3.2.8 6.2 3.3 6.2 5.2 0 .7.5 1.3 1 1.3 1.3 0 1.3-.3-.2-3.5-.6-1.4-1.5-2.5-2-2.5s-.6-1.6-.2-3.6c.8-4.1-.9-8-3.7-8.7-1.2-.3-1.9-1.4-1.9-3 0-2.8-4.6-5.3-8.1-4.4-1.5.4-3.2-.5-6.2-3.4-3.8-3.6-5.7-4.4-9.9-4-2.8.3-3.1-1.8-.4-2.9 3-1.1 2.9-1 1.6-4.6-.9-2.4-1.4-2.6-4.6-2.1-2.9.5-3.5.3-3.3-1.1.3-3.4-.2-4.2-2.5-4.2-2.7 0-5.6 2.4-5.6 4.6 0 2.3-1.4 1.6-3.1-1.5-2-3.4-6.8-4.5-9.7-2.2-1.1.9-2.3 3.3-2.6 5.3-.7 3.7-2.6 5.4-2.6 2.3 0-2.6-3.8-5.5-7.3-5.5-3.7 0-5.7 1.5-5.7 4.1 0 1.9-1.7 3.5-2.7 2.5-1-.9.7-5.6 2.7-7.6 2.2-2.2 6.6-2.6 10.5-.8 2.2 1 2.9.8 5.3-1.5 3.2-3.1 8.5-3.6 11.9-1.2 1.8 1.3 2.4 1.3 5.2-.1 3.7-1.9 6.8-1.1 8.3 2.2.6 1.3 1.5 2.1 2 1.8 2.7-1.7 8.5 4.6 7.2 7.9-.5 1.4 2.3 3.3 3.3 2.3.9-.9.4-11.4-.8-16-1-4-1.4-4.5-3.4-4-2.9.7-5.1-1.5-6-6.3-.9-5-2.9-8.1-5.7-8.5-1.8-.2-2.4-1.1-2.8-3.7-.6-3.8-3.8-6.7-8.6-7.7-2.5-.5-3.8 0-6.6 2.5-4.3 3.8-5 3.9-4.2.6 1.1-4.4-3.6-12.1-6-9.8-1.6 1.6-.5 6.6 1.9 8.5 2.5 1.9 3.5 5.8 1.5 5.8-.6 0-1.6-1.1-2.2-2.5-.8-1.8-2.2-2.7-5-3.1-3.9-.7-5.5-3.4-1.9-3.4 2.9 0 3.5-1.7 1.7-4.5-1-1.6-2.6-2.5-4.1-2.5-2.2 0-2.5-.3-1.9-2.4.4-1.8.1-2.7-1.5-3.6-3-1.5-5.8-.4-6.9 2.8l-.9 2.7-1.6-3.6c-1.8-4.3-2.7-5-6.9-5.1-3.6-.1-6.8 3.1-6.8 6.8 0 3.4-1.7 3-2.5-.6-.4-1.6-1.6-3.7-2.8-4.5-2.6-1.8-7.8-2-9.5-.3-.6.6-1.4.9-1.7.6-.3-.3.1-1.3 1-2.2 2.3-2.3 9.6-2.1 12.1.3 1.9 1.8 2 1.8 4.7-.5 1.6-1.3 4-2.4 5.3-2.4 2.9 0 8.4 2.6 8.4 4 0 .6 1 .5 2.5-.2 3.5-1.6 8.9.1 9.3 2.9.5 3.4 3.7 3.5 5.6.2.9-1.6 2.8-3.2 4.1-3.5 3.2-.8 9.3 1.3 10.5 3.6 1 1.9 1.1 1.9 4.5-.1 1.9-1.1 3.8-1.8 4.3-1.5.5.3 1.2-3.6 1.5-8.6.7-11 2.2-13.5 9.3-16 2.7-.9 4.3-1.7 3.6-1.8-1.5 0-18.2 3.7-20.5 4.6-1 .4-1.7.1-1.7-.6 0-1.1 37.7-52 38.5-52 .2 0 2.2 3.4 4.4 7.5 2.3 4.1 4.5 7.5 4.9 7.5.4 0 2-2.4 3.5-5.4 3.6-6.8 11.6-15.1 13.1-13.6.7.7-.1 2.1-2.6 4.8zm31.2-5c0 .5-2.6 2.8-5.8 5.1-3.2 2.3-7.3 5.7-9.1 7.6-1.8 1.9-3.7 3.5-4.2 3.5-2.8 0 1.6-15.3 4.6-15.9 1.3-.2 1.6.1 1.1 1.4-.3.9-.9 2.9-1.3 4.3l-.6 2.7 4.4-3.6c6.6-5.4 10.9-7.4 10.9-5.1zm-214.3 32c2.1 2.9 5.5 7.5 7.6 10.2 3.6 4.7 4.2 7.5 1.4 6.4-1.8-.6-17.2 13.6-17.1 15.8 0 1.6-.3 1.5-3.7-.4-7.8-4.4-13.4-9.3-13.7-12.1-.3-2.8-2.6-3.7-3.5-1.3-1 2.5 1.8 6.1 8.5 11.1 6.3 4.7 15 9.7 19.2 11 1.7.5 1.8 1.3 1.1 9-.6 7.2-.5 8.5.8 8.5.9 0 2.2.3 3.1.6 1.2.5 1.6 0 1.6-1.8 0-4.7 7.6-9.2 11.8-6.9 1.7.9 2.3.6 3.6-1.3 2.1-3.3 7.1-4.3 9.6-2.1 1.1 1 2.6 1.4 3.8 1.1 2.3-.8 8.2 3.7 8.2 6.1 0 .9.6 1.3 1.4 1 .7-.3 2.8.3 4.5 1.4 2.6 1.5 3.2 2.5 2.9 4.7-.3 3-2.1 3.3-2.6.5-.7-3.8-5.3-4.9-9-2-.9.7-1.6.7-2.3 0-.7-.7-.4-1.5 1.2-2.6 2.1-1.5 2.1-1.7.5-4.1-1.8-2.9-4.7-3.4-6.6-1.1-1.5 1.8-3 1.1-3-1.6 0-1.3-.7-1.9-2.3-1.9-3.2 0-5.8 3-5 5.8.7 2.7-.7 2.8-3 .2-1.9-2.3-4.4-2.5-8.1-.8-3 1.3-4 3.8-3.1 7.7l.6 2.8 6.8-1.2c7.1-1.2 9.8-.8 12 1.9 1 1.2 1.7 1.4 2.7.5 3-2.4 14.8 3.1 13 6-.5.8-1.7.3-3.8-1.4-3.1-2.6-7.6-3.3-9.5-1.4-.7.7-1.8.3-3.7-1.6-2.3-2.3-3.2-2.6-6.8-2-5.2.9-8.7 4.7-8.8 9.5v3.5l-2.3-2.6c-4.8-5.8-10.7-7.4-10.7-3 0 1-.7 2.1-1.5 2.5-2.3.8-1.8 5.2.9 7.9 1.8 1.8 2.8 2.2 4.1 1.5 2.3-1.3 6.5-.1 6.5 1.8 0 1.2-.7 1.4-2.9.9-2.2-.5-3.5 0-5.9 2-2 1.7-3.3 2.2-3.7 1.4-.4-.6-.2-1.6.4-2.2 1.4-1.4 1.4-3.7.1-3.7-.5 0-.9.5-.7 1.1.1.7-1.9 1.7-4.4 2.4-9.5 2.5-22.2 11.2-21.7 14.9.2 1.3-.2 2-1.1 1.8-3.1-.7-5.4 1.2-7.7 6.5-2.1 4.6-2.7 5.3-3.9 4.3-.8-.7-1.5-2-1.6-2.9-.1-.9-.4-.5-.9.9-1.2 3.7-1.2 13.4.1 14.6.7.8-.1 2.2-2.6 4.7-3.1 3.1-3.6 4.2-3.3 7.4.2 3 1 4.2 3.8 6.1l3.5 2.3.6-2.9c.9-4.3 1.6-5.1 5.5-5.8 4.4-.8 5.1-.1 3 3-.9 1.4-1.6 3.2-1.6 4.1 0 2 4 3.5 9.3 3.5 3.8 0 4.4-.3 5.4-2.9 1.5-4.1 5.9-6.8 8.4-5.3 1.5 1 2.4.9 4.4-.4 2.9-1.9 5.7-1.2 8.4 2.2 1.7 2.2 2.2 2.3 4 1.3 1.5-1 2.5-1 4.6-.1 3.3 1.5 2.5 3-1.3 2.4-2-.3-3.7.4-5.9 2.2-2.1 1.8-3.4 2.3-3.8 1.5-.4-.6-.2-1.6.4-2.2 1.6-1.6 1.3-3.5-.7-4.6-2.6-1.4-5.8-.3-6.9 2.2l-1 2.2-1.2-2.3c-2.4-4.6-7.7-1.1-6.6 4.4.6 3.2.5 3.3-2.4 2.4-2.4-.7-3.7-.4-6.3 1.4-3.4 2.3-3.9 4.4-2.3 9.4.7 2 .5 2.2-1.6 1.3-5-1.8-8.9 1.8-8.9 8.3 0 2-.4 3.6-1 3.6-1.3 0-4 5.4-4 8.3 0 1.2.5 2.8 1.1 3.4.9.9.4 1.8-1.8 3.7-1.7 1.4-3.6 4-4.3 5.7-1.2 2.8-1.1 3.3.3 4.4.9.7 1.7 1.7 1.7 2.3 0 .6 1.4 1.8 3 2.7l3 1.6V281c0-5.3 6.5-7.2 18.3-5.3 5.1.9 2.5 5.9-5 9.7-1.8.9-3.3 2.3-3.3 3.1 0 1.8-1.7 2-2.3.2-.6-1.7-2.7 3.8-2.7 7.3s4 7 8.2 7c2.7 0 7.8 4 7.8 6.1 0 1.2 6.9 3.1 9.3 2.5 3.3-.8 7.7 3.9 7.7 8.3 0 9.2 4.1 25.7 11.6 47.5 2.5 7.2 3.1 10.2 2.4 11.2-.6.7-4.1 3.2-7.7 5.5l-6.6 4.3-4.7-5.2c-10.3-11.1-24.8-32.3-33-48-1.8-3.5-3.4-6.1-3.7-5.8-.8.7 4.3 20.3 9.1 35.2 2.5 7.8 4.6 14.4 4.6 14.8 0 1.3-14.2 9.8-15.5 9.2-5-1.9-28-35-37.8-54.4-25.3-49.8-39.3-112-35.6-158.2 1.7-21.2 7.9-38 22.6-61.5 7.9-12.5 15-19 27-24.9 4.7-2.3 8.1-4.8 10-7.3 4-5.3 12.8-14.3 14-14.3 1 0 9.5 10.9 13.5 17.2 1 1.6 2.6 2.8 3.6 2.8 3.2 0 9.8-5.2 13.5-10.5 1.8-2.8 5.3-6.5 7.7-8.3 4.2-3.2 4.5-3.3 5.7-1.5.6 1 2.9 4.2 5 7.1zm-73.9 10.4c-.5 1.3-1 1.6-8.2 5-2.8 1.3-7.6 4.7-10.9 7.7-4.7 4.4-6 5.2-6.8 4-1.3-1.9 8.9-11.5 16.1-15.2 5.6-2.8 10.5-3.6 9.8-1.5zm282.8 16.3c2.5 6 1.6 7-2.1 2.5-4-4.8-4.3-6-1.4-6 1.3 0 2.5 1.1 3.5 3.5zm-207 .5c-1.4 1.7-2.8 4.6-3.2 6.5-.7 3.9-1.2 4.2-4 2-1.8-1.5-1.7-1.7 3.4-6.5 6-5.7 7.6-6.5 3.8-2zm55.5 22.3c-.1.4-.1 1.4-.1 2.2 0 .8-.4 1.5-1 1.5-.5 0-1-1.2-1-2.6 0-1.4.5-2.4 1.1-2.2.6.2 1 .7 1 1.1zM561.5 203c.3.5-1.2 2.9-3.3 5.2-3.6 3.8-4.2 4.1-5.7 2.8-1.6-1.3-1.4-1.7 2.6-5.2 4.7-4 5.4-4.4 6.4-2.8zm158.4 27.4c1 1.2 1.6 1.2 4.2-.1 3.7-1.8 8.9-.9 9.6 1.8.3 1 1.4 1.9 2.5 1.9 2.6 0 6.8 4.4 6.8 7.2 0 1.6 1 3 3 4.1 1.7 1 3 2.7 3 3.8 0 2.5-.8 2.4-2.9-.2-1.3-1.6-2.8-2.1-5.9-2.1-4.5.1-6-2.1-2.2-3.1 2.4-.6 2.6-3.4.4-5.8-1.2-1.4-2.2-1.6-4-.9-2.5 1-2.8.7-2.5-2.3.3-2.1-2.1-3.1-5.4-2.3-1.5.4-2.5 1.4-2.5 2.5 0 3.2-1.2 3.1-4.4-.3-5-5.4-11.6-3.6-11.6 3 0 2.4-.5 3.4-1.5 3.4-.8 0-1.5-.6-1.5-1.3 0-2.3-3.3-4.4-7.4-4.9-3.5-.4-3.9-.2-5.4 2.9-1.6 3.3-4 4.8-2.8 1.7.3-.9.6-2 .6-2.4 0-.5 1-1.8 2.2-3 2.5-2.3 7.1-2.6 11.1-.6 1.5.8 2.7 1.1 2.7.5 0-.5.9-1.8 2-2.9 2.4-2.4 10.1-2.8 11.9-.6zm-72.3 13.9c.3.8 1.7 1.2 3.7.9 3.4-.4 7.7 2.6 7.7 5.3 0 .8.8 1.5 1.9 1.5 2.7 0 7.5 4 6.2 5.3-.6.6-1.5.4-2.7-.8-1.6-1.6-2.8-1.6-8.1 0-2.7.9-3.2-1.2-.7-3 1.4-.9 1.4-1.6.5-3.3-1.4-2.6-4.7-2.9-7.2-.6-1.7 1.5-1.9 1.4-2.5-1-1.2-5-7.4-2.8-7.4 2.6 0 3.4-.3 3.4-3.4.3-3-3-5.2-3.1-8.6-.6-2.1 1.7-2.4 2.7-2.2 7.1l.2 5.2-3.1-2.6c-3.6-3-3.6-3-8.3-1.1-3.8 1.6-4.6 3.8-2.5 7.7.7 1.3.8 2.3.1 3-1.5 1.5-3.4-2.7-3-6.9.4-4.6 3.9-7.3 9.6-7.6 3.2-.1 4.2-.5 4.2-1.8 0-1 1.4-2.9 3.2-4.4 2.5-2.1 3.9-2.6 6.7-2.2 2.7.3 4.3-.2 6.4-2 3.1-2.5 8.5-3.1 9.3-1zm50 73.7c-1.3 9.6 2.7 19.6 12.2 30.8 3.5 4.2 4.2 5.6 3.3 6.5-1 .9-2.3.1-5.8-3.8-8.9-9.7-13.3-19.7-13.3-30 0-6.4.7-8.5 2.7-8.5 1.3 0 1.4.9.9 5zm-100 63.2c.4.6-.2 1.9-1.5 2.9-1.2 1-2.8 3.5-3.5 5.6-1.3 3.8-4.6 5.9-4.6 2.9 0-.9-.6-1.3-1.4-1-.8.3-1.7 0-2.1-.6-.9-1.5 8.3-10.8 10.7-10.9.9-.1 2 .4 2.4 1.1zm-42 3.3c.4.9-.3 2.3-1.5 3.3-1.1.9-2.7 3.5-3.4 5.6-1.5 4.5-3.6 5.8-4.4 2.8-.3-1.2-1.1-1.8-1.8-1.6-3.4 1.3-1.9-1.8 3.1-6.5 6-5.4 7.1-6 8-3.6zm43 2.8c.8 2.1-1.4 6.7-3.2 6.7-1.2 0-1.4-.6-.9-3.3.4-1.7.9-3.5 1.2-4 .7-1.1 2.3-.8 2.9.6zm-42.1 3.8c.8 1.2-1.4 6.9-2.7 6.9-1.5 0-1.9-2.5-.9-5.3 1.1-2.8 2.5-3.5 3.6-1.6z"/><path d="M731.8 94.7c.7.3 1.6.2 1.9-.1.4-.3-.2-.6-1.3-.5-1.1 0-1.4.3-.6.6zM694.2 123.2c-1.8 1.8-1.4 3.8.7 3.8 2.1 0 7.1 5.3 7.1 7.6 0 1.6 1.6 1.9 2.5.4 1.1-1.7 7.9-1.1 11.5 1.1 4.1 2.5 5 3.6 5 6.4 0 1.3 1.1 2.5 2.9 3.3 2.9 1.3 5.5 6.1 6.3 11.7.2 1.1 1.2 2.1 2.3 2.3 2.2.3 8.5-5.1 8.5-7.2 0-2.2-2.4-4.6-5.5-5.4-3.8-1.1-3.9-2.6-.2-3 2.5-.3 2.8-.7 2.5-3.5-.3-2.8-.7-3.2-3.6-3.5-2.9-.3-3.1-.5-2.1-2.3 1.6-3.1.4-4.9-3.4-4.9-2.5 0-3.9.7-5 2.2l-1.6 2.3v-3.2c-.1-2.2-.9-3.8-2.8-5.3-3.7-2.9-7.3-2.3-9.8 1.7-2.5 4-3.4 4.1-4.2.3-1-5-7.9-8-11.1-4.8zM572.8 80.7c-7.7 7.5-9 9.3-6.5 9.3 1.9-.1 17-14.8 16.2-15.9-.3-.6-.9-1.1-1.3-1.1s-4.2 3.5-8.4 7.7zM530.5 82.4c-5.4 5.1-7.7 7.7-7 8.5 1.2 1.2 17.9-13.5 16.9-15-.9-1.6-1.7-1.1-9.9 6.5zM575.7 85.3c-7.1 6.6-9.2 9.7-6.7 9.7 1.6 0 17-15.1 16.4-16.1-.9-1.5-1.7-1-9.7 6.4zM540 81c-6.8 5.9-14 13.1-14 14 0 2.3 3 .5 10.5-6.5 5.5-5.2 7.6-7.8 6.9-8.5-.7-.7-1.8-.4-3.4 1zM579.1 92.9l-8.4 7.8 2.4 2.1c1.2 1.2 2.5 2.2 2.8 2.2.3 0 4.2-3.6 8.6-8l8-7.9-2.2-2.1c-1.2-1.1-2.3-2-2.5-2-.2.1-4.1 3.6-8.7 7.9zM536.6 94.6l-8 7.6 2.5 1.9c1.3 1 2.6 1.9 2.9 1.8.8 0 16-14.6 16-15.4 0-1-3.2-3.4-4.5-3.4-.5 0-4.6 3.4-8.9 7.5z"/><path d="M543.1 99.9c-5.1 4.7-8.1 8.3-7.7 9 1.3 2-.8 1.2-6.4-2.5-7.8-5.2-11-8.4-11-11.2 0-3-2.4-2.4-2.8.7-.5 3.1 3.4 7.1 12.6 13.2 13.1 8.6 20 9.9 17.6 3.2-1-3.1-4.1-3.9-3.6-1.1.4 2.2-2.1 2.4-3.8.3-1-1.2.2-2.8 7.1-9.4 5.6-5.3 8.1-8.3 7.4-9-.7-.6-3.9 1.7-9.4 6.8zM580.3 126.5c.1 5 .6 7.5 1.4 7.5 2.1 0 2.5-1.9 1.8-8.5-.5-4.5-1.2-6.5-2.1-6.5-1 0-1.3 1.7-1.1 7.5zM546.6 129.2c-.3 2.9-.6 7.5-.6 10.3 0 2.7-.7 8.8-1.4 13.5-2.7 15.7-4.7 26.5-5.3 28.5-.4 1.5 0 1.3 1.7-.8 5-6.2 11.8-56.7 7.6-56.7-.9 0-1.5 1.8-2 5.2zM581.3 137c-1.5.6-2.3 1.8-2.3 3.4 0 3.2 1.1 3.8 4.7 2.4 2.6-1 3.6-.8 6.7 1l3.6 2.1v-2.8c0-5.5-6.5-8.6-12.7-6.1zM541.5 184.1c-.4.6-.5 1.2-.2 1.5.2.3.7-.2 1-1.1.7-1.7.1-2-.8-.4zM529.4 278.3c-1.4 3.7 13.2 41.1 26.1 66.7 6.4 12.7 13.9 25 15.4 25 2.3 0 1.6-1.9-3.1-9.5-10.3-16.6-24.7-48.2-32.4-71.4-3.8-11.3-4.9-13.4-6-10.8zM487 280.8c0 5.2 15.1 43.4 25.1 63.5 6.8 13.7 14.6 26.7 16.1 26.7 2.1 0 1.4-2.5-2.2-8.1-9.7-15.1-26.3-52-33.6-74.8-1.6-5-3.5-9.1-4.1-9.1-.7 0-1.3.8-1.3 1.8zM559.6 334.9c-.3.5 2.5 6.9 6.2 14.3 3.8 7.3 8 16.1 9.5 19.6s3.1 6 3.7 5.7c.5-.3 1-1.2 1-1.8-.1-3.4-17.5-38.7-19.1-38.7-.4 0-1 .4-1.3.9zM517 336.9c0 .5 3.1 6.9 6.8 14.3 3.8 7.3 7.7 15.5 8.7 18.3 2.2 6 3.1 7.3 4.5 5.9 2.2-2.2-15.8-39.4-19-39.4-.6 0-1 .4-1 .9zM241 44.5l-4.5 4.5h5.7c3.1 0 6-.5 6.3-1 .4-.6-.9-1-3.1-1h-3.8l2.7-2.8c2.7-2.8 3.4-4.2 2-4.2-.5.1-2.8 2.1-5.3 4.5zM812 58.1c-4.1 5.1-9 10.9-10.7 13-1.8 2-3.3 3.9-3.3 4.2 0 .9 18.1 12.9 18.7 12.4.6-.7 3.5-34.5 3.1-37-.2-1.3-2.5.9-7.8 7.4zM284.8 94.3l-7.7 3.2.1 4.5c0 2.5 1.5 8.7 3.1 13.9 3.1 9.3 3.1 9.4 7.6 11.3 2.6 1 6.4 2.8 8.6 3.9 2.2 1.2 5.3 2.8 6.8 3.6 1.6.9 4.7 1.5 7 1.5 2.2-.1 5.9.7 8.1 1.7 2.3 1 7.9 3.1 12.4 4.7l8.4 2.9-.6 4.6c-.4 2.6-.2 6.8.3 9.5s1.2 6.6 1.6 8.6c.3 2.1 1 3.8 1.5 3.8.6 0 1.1-1.7 1.1-3.8l.2-3.7.6 4c.6 3.8.7 4 6.1 5.1 12.1 2.7 18.7 5.9 27.2 13.3 4.5 3.9 8.6 7 9.2 6.8.5-.2 1.4-1.2 2-2.3.6-1 1.3-2.1 1.6-2.4 3.4-3.4 3.4-3.9-1.6-9-4.5-4.7-4.8-5.2-4.5-9.7.3-5.5-4-15.9-7.1-16.9-1-.3-5-2.5-8.9-4.9-5.9-3.7-7.5-4.2-9.6-3.4-4.1 1.6-5 1-1.5-1.1 1.8-1.1 3.7-2 4.3-2 .6 0 4.4 2 8.5 4.5 4 2.5 8 4.5 8.9 4.5.9 0 2.6 2.6 4.3 6.2 1.5 3.5 3.1 5.8 3.4 5.3.3-.6-.7-3.8-2.2-7.3-2-4.3-3.4-6.2-4.7-6.2-1 0-5.2-2-9.4-4.4-6.4-3.8-8.2-4.4-11.5-3.9-3.3.4-6.5-.7-20.2-6.8-15-6.6-16.3-7.4-15.8-9.4.3-1.2-.5-5.3-1.8-9.1-3.4-10-3.7-10.4-5.2-10.4-.8 0-5.3-2.2-10-4.9l-8.5-4.8-8.2 2.3c-9.1 2.6-10.6 2.8-9.1 1.5 1.1-1 13.6-6.1 15.1-6.1.5 0 5 2.2 9.9 5 4.9 2.7 9.9 5 11.2 5 1.5 0 2.6.9 3.3 2.7 2.7 7 3.2 7.8 3.6 6.2.2-.8-.5-3.7-1.6-6.2-1.7-3.9-2.5-4.7-4.7-4.7-1.5 0-6.6-2.3-11.4-5-4.8-2.8-9.6-5-10.6-4.9-1.1.1-5.4 1.5-9.6 3.2zM344 148c0 .5-.7 1-1.5 1s-1.5-.5-1.5-1c0-.6.7-1 1.5-1s1.5.4 1.5 1zM810.5 103.9c-3.1 1.1-5 2.4-4.9 3.3.2 2.5 7.5 13.1 8.3 12.2.7-.8 2.4-17.5 1.8-17.3-.1 0-2.4.9-5.2 1.8zM232.5 455.7c-7.2 2-10.5 3.4-10.5 4.4 0 3 5.6 14.9 9.3 19.7 8.5 11.1 9.6 19.4 5.1 41.1-1.5 6.9-3.6 17.3-4.8 23-1.2 5.8-2.7 10.6-3.4 10.9-2.2.7-1.3-5.5 4.9-32.8 1.3-5.8 2.2-13.4 2.2-19.5.2-11.1-.3-12.5-7.3-21.3-2.2-2.9-5.4-8.7-7.1-13-2.8-7-3.3-7.8-5.4-7.5-2.1.5-2.2.8-1.3 4.5 1.1 5.1 3.1 9.1 7.8 15.3 7.8 10.5 8.5 12.7 8.4 26 0 11.8-.1 12.2-5.4 27.5-4.6 13.4-5.4 16.8-5.8 25.2-.6 13.3 2.8 29.4 9.4 43.2l2.4 5.1 16.1-.3c14.6-.3 16.1-.5 15.6-2-.3-.9-2.1-6-4.1-11.3-8.4-23.1-8.5-35.2-.6-59.4 4.4-13.2 5.4-17.6 5.8-25.1.6-12.6-.8-17.8-7.6-27.2-6.3-8.8-9.1-14.5-9.2-18.5v-2.8l14.1.3 14.2.3 2.1 6.5c1.2 3.7 4.2 9.3 6.9 13 11.4 15.2 12 25.5 3.2 53.1-6.1 18.9-7.1 26.6-5.1 39 1.5 9 6 23.9 9.2 30.1 1.2 2.3 2.1 2.8 4.9 2.8 1.9 0 3.5-.1 3.5-.3 0-.2-1.4-4.3-3-9.3-4.5-13.3-7.2-27.6-6.5-34.3.8-6.9 9.4-43.2 10.6-44.5 2.5-2.7 1.8 4.4-1.9 19.3-2.2 9.1-4.1 17.3-4.2 18.1-1.5 16.8-.4 24.1 5.9 42.5l2.7 8 12.3.3c11.5.2 12.3.1 11.8-1.5-.3-1-2.2-6.3-4.1-11.8-6.1-17.4-7.6-32-4.5-44 .6-2.2 2.8-9.4 4.9-16 4.8-14.8 6.2-24.5 4.9-32.7-1.3-7.9-2.7-11-8.3-18.4-5.3-7.1-8.5-13.7-8.6-17.7V461h8.4c4.5 0 11 .3 14.4.6l6.1.7 1.1 4.8c1.1 4.4 2.9 7.5 11.8 20.6 1.2 1.9 3 6.2 3.9 9.8 2.4 8.9.9 19.7-5.3 38.5-4.7 14-4.8 14.9-4.8 26.5 0 13.4 1.4 20.3 7.1 34.7l3.5 8.8h4.2c2.2 0 8.9.3 14.8.6 12.5.6 11 2.5 12.7-16.1 1.6-18.7 6-65.1 9-97 1.5-16 2.7-29.1 2.6-29.3-.4-.5-50.7-3.3-51.1-2.9-1.2 1.1 4.5 14 8.3 18.9 10.4 13.6 11.1 21.3 4.4 52.8-2.2 10.7-4.1 20.5-4.1 21.7 0 1.4-.6 2.3-1.5 2.3-2.3 0-1.9-4.8 2.5-26.6 6-29.9 5.5-35.3-4.3-48.2-4.4-5.8-9.3-17.3-8.3-19.7.7-1.9.3-2-70.3-6-14.1-.8-28.7-1.6-32.6-1.8-4.3-.3-8.9.1-12 1zM634.8 455.6c-5.4.7-15 2.7-21.4 4.3l-11.7 3.1H448l-.1 36.2c-.1 39.8 0 37.4-2.4 47.3-2.2 8.9-2.3 27.9-.1 39 1.3 6.4 1.6 15.2 1.6 45.2v37.2l2.4 5.5c2.5 5.5 2.5 5.6 3 51.8.4 25.5.9 60.3 1.2 77.5l.6 31.1 8.2.6c4.4.3 23.9 1 43.1 1.6 29.8 1 61.1 2.1 125.3 4.4 6.7.3 12.2.3 12.2.1 0-.2-2.1-1.3-4.6-2.4-7.2-3.2-31.3-22.5-51.7-41.4-20.2-18.7-68-74.6-69.2-80.9-.3-1.8-.5-7.9-.3-13.5l.3-10.2L529 707c8.9 11.5 11.5 15.6 11.5 17.9 0 1.7.4 3.1.9 3.2.5.1 5.9-4.7 12-10.7 6.1-6.1 14.4-13.2 18.5-15.8 20.6-13.5 43.6-20.7 73-23.1 7-.6 8.4-1 8.8-2.6.3-1.1 1.4-1.9 2.4-1.9 2.2 0 2.5-1.6.5-2.7-1.2-.7-.8-3.5 2.5-17.3 4.5-19 9.1-43.5 11.4-60 .8-6.3 1.7-12.5 1.9-13.8.3-2.1.1-2.3-2.3-1.7-3.7.9-21.2 9.3-23.2 11.1-1.3 1.2-4.6 1.6-13.8 1.8-14.4.3-14.4.2-1.9-9.8 9.7-7.8 24.2-15.4 35.7-18.6l8.4-2.4-.6-23.1c-.8-31.7-4.2-47.1-12.7-56.8-5.5-6.2-8.2-7.1-19.3-6.4-38.6 2.6-75.5 23.7-88.6 50.7-2.7 5.6-3.6 8.9-3.7 13-.1 4.9-1.6 14.2-3 19.2-.8 2.8-2.9 2.1-6.7-2.1-6-6.7-7.9-16.9-4.8-26.8 7.7-25 32-48.2 62.6-59.7 21.3-8 32.1-10.6 45.2-10.6 13.3 0 20.9 2.9 28.4 10.8 8.7 9.2 13.3 20.4 16.9 41.2.9 5 1.7 24.6 2 48.1 0 .4 4 .6 9 .5l9-.1-.6-3.1c-.6-3.2 1.7-12.3 9.1-36.9 1.8-6.1 4.5-15.2 6.1-20.3 4.7-15.9 7.2-16.6 32.4-10.3 8.5 2.1 24.5 6 35.5 8.6 18.2 4.4 20.3 5.1 23.3 8.1 4.1 4.1 4.2 8.6.6 21-1.4 4.9-3.7 12.7-5.1 17.4-11 37.8-10.3 36.1-15.9 38.5-2 .8-4.7 1.5-5.9 1.5-1.3 0-16.8-3.6-34.6-8s-32.9-8-33.5-8c-.6 0-1.7 1.9-2.3 4.3l-1.3 4.3-5.1-.7c-9-1.3-22.7-1.1-22.7.4 0 2.8-6.1 42.2-8.5 54.7-9.8 51.9-31.3 120.7-52.9 168.9l-5.4 12.1 6.2 3.8c7.5 4.8 14.7 8.5 21.5 11.1l5.1 1.9 4.1-6.2c5.1-7.4 15.8-20.8 17.6-21.9.7-.4 2.6-2.2 4.3-4l3-3.2 2.6 2.7 2.7 2.6-3.9 3.9c-4.9 4.8-12.8 14.2-13.3 15.7-.2.6 1.4-.5 3.5-2.5 10.5-9.7 12.7-11.4 22.6-16.8 7-3.9 10.2-2.4 12.6 5.9 3.9 13.7 9 27.6 10.7 29.2 1.1 1.1 3.1 1.8 4.5 1.6 2.3-.3 2.7-1.2 5-9.8 1.4-5.2 3.1-10.6 3.8-12 .6-1.4 2.3-7 3.7-12.5 3.2-11.7 5.7-17.1 8.5-18 3.3-1.1 6.5 1.8 8 7.2 2.5 8.9 15.6 39 16.6 38 .3-.3 1.6-6.1 2.9-12.9 6.4-34 10.1-46.5 14.5-48.8 4.4-2.4 7.4 1.9 12.4 17.9 3.6 11.5 10.5 28.9 11.7 29.7 1.3.8 2 .1 2.1-2.2.2-4.4-1.3-129.2-1.8-154.8l-.6-28-3-4.3-3.1-4.3 1.7-5.7c2.3-7.8 5.6-19.1 10.4-35.3 16.5-56.1 16.8-57.3 15-65.4-1.3-6.2-8.1-13.4-14.7-15.6l-4.4-1.4.7-8.1c.3-4.4.9-11.4 1.2-15.6l.7-7.6-11.9-.7c-6.6-.4-31.9-1.8-56.4-3.1-80.4-4.5-96.5-5.5-98.8-6.5-2.7-1.2-2.8-1.2-15.4.6zm-115.9 15c3.1 2.2 5.1 7.3 5.1 13 0 4.6 0 4.7-1.9 3-1.9-1.7-2.2-1.7-7.1 1-5.9 3.2-12.1 11-17 21.6-4.3 9.2-5.6 16.8-4 24.2 1.2 5.8 4.4 10.6 7.1 10.6 3.9 0 16-18.4 17.8-27.1.6-2.4 1.7-7.1 2.5-10.4.8-3.3 1.9-7.8 2.4-10l1-4 .1 4.5c.3 18.6-13.9 46.6-24.7 48.6-4.1.8-7.7-2.1-8.6-6.9-.3-1.7-1.5-4-2.5-5.2-6.1-6.7-5.6-18.6 1.5-37.7 7.2-19.2 20.2-30.8 28.3-25.2zm-.3 32.8c-.9 3.9-2.8 9.5-4.1 12.4-1.4 3-2.5 6.4-2.5 7.6 0 3.5-8.8 16.6-11.1 16.6-1.9 0-4-6.4-4-12.3-.1-7 1.8-13.5 6.2-21 5.6-9.5 8.2-12.8 12.3-15.2l4.1-2.5.3 3.7c.2 2-.4 6.8-1.2 10.7zm56 8.9c-4.3 2.6-9.6 8.1-12.7 12.8-3.8 6-4.9 5.8-1.8-.3 4.5-8.9 9.7-13.9 14.4-13.7 2 0 2 0 .1 1.2zm-92.9 2.9c-.3.8-.6.5-.6-.6-.1-1.1.2-1.7.5-1.3.3.3.4 1.2.1 1.9zm-2.6 4.4c.4 2.7 1 6 1.3 7.4.6 2.2.1 3.1-3.3 5.8-5.7 4.6-10.8 15.4-12.2 26-1.3 9.6 0 23.9 3.1 34.9 1.1 3.7 2 9.2 2 12.1 0 4.6.2 5.3 1.8 4.8.9-.2 5.5-1.2 10.2-2.1 4.7-.9 11.6-2.5 15.4-3.6 3.8-1 7.2-1.6 7.6-1.4.5.3 1.1 5.3 1.5 11.2.3 6 1.3 20.2 2 31.8.8 11.5 1.7 25 2 30 .3 4.9.7 12.1 1 16 .5 6.7.7 10.4 2 32.5.3 5.2 1.4 23.1 2.5 39.7 2.2 33 2.4 39.9 1.3 40.6-.5.3-2.6.8-4.8 1.1-2.2.3-5.2.9-6.6 1.2-2.9.6-2.8.8-6.4-19.6-.8-4.7-2.3-13.5-3.4-19.5-7.2-39.8-15.7-88.9-16.9-97-1.6-11.1-2.7-14.3-10.5-30.3-12.8-26-18.6-47-19.4-70.2-.5-11.7-.2-14.8 1.6-22 2.6-10.6 6.3-17.9 12.1-24.3 4.7-5.3 12.7-11 14.5-10.4.5.2 1.3 2.6 1.6 5.3zM582 515c4 2.1 5.2 15.6 2.6 30.1-3.5 19.3-17.8 40.6-25.9 38.5-6-1.5-14.5-17.5-10.4-19.7.8-.5 1.7-3.1 2.1-6.2.8-6.5 3-14 3.8-13.2.3.4.2 2.1-.3 3.8-2.1 7.4 0 5.7 2.5-1.9 1.9-5.9 7.5-15.6 11.4-19.7 3.7-4 7.8-5.9 11.5-5.5 2.4.2 3.3-.1 3.5-1.5.2-1.1-.3-1.7-1.6-1.7-2.1 0-4.6-2.3-3.5-3.3.9-1 2.1-.9 4.3.3zm88 31c0 .5-.2 1-.4 1-.3 0-.8-.5-1.1-1-.3-.6-.1-1 .4-1 .6 0 1.1.4 1.1 1zm-223.3 20.2c-.2 1.3-.4.5-.4-1.7-.1-2.2.1-3.2.4-2.3.2 1 .2 2.8 0 4zM748 577.1c25.8 6.3 30.6 8.4 33.6 14 2.1 4.2 1.7 10.4-1.7 21.4-1.6 5.5-3.6 12.5-4.5 15.5-.8 3-3.9 13.8-6.9 24-3 10.2-7.9 27-10.9 37.4-3.1 10.4-5.8 19.1-6.1 19.4-.9 1-63.7-15.2-64.2-16.5-.4-1 6.6-26.3 15.8-57.3 1.7-5.8 4-13.4 4.9-17 1-3.6 3-10.3 4.4-15 1.3-4.7 3.8-13.2 5.5-19 3.8-12.8 3.8-13 4.8-13 .5 0 11.9 2.7 25.3 6.1zm-100.2 18.8c2.4 1.2 4.4 3.2 5.2 5.1 2.8 6.8-4.8 16.9-18.2 24-7.4 4-22.3 9-26.2 8.9-2.2 0-.8-.7 4.9-2.5 15.7-4.7 28.2-13 32.5-21.5 2.9-5.7 2.6-7.8-1.5-9.5-4.3-1.8-9.4-1.8-10.1-.1-.3.9-2.3 1.4-5.2 1.5-2.6.1-6.9.7-9.5 1.3-2.6.6-5.7.9-6.8.6-2.9-.8-7.9 1.2-7.9 3.1 0 1.3-.2 1.4-.8.4-.7-1-1.5-.7-3.8 1-1.6 1.2-3 2.6-3.2 3-.2.5-1 .8-1.7.8s-1.5.3-1.7.7c-.1.5-2.4 2.5-4.9 4.5-6.1 4.9-7.9 9-5.6 13l1.7 2.9-3.1-1.8c-3.5-2.1-5-6.5-3.6-10.8 1.7-5 11-13.1 20-17.4 19.6-9.5 39.3-12.4 49.5-7.2zm64.7 106.6c18.7 4.7 35.3 9 36.8 9.6 3.8 1.6 7.7 6.9 7.7 10.6 0 1.7-.9 5.9-2 9.4-1 3.5-2.3 8.2-2.9 10.4-1.2 5.3-7.5 27-10.8 37.2-4.8 15.2-8.8 16.6-32 10.9-18.5-4.6-16.8-4.1-29.8-7.5-6-1.6-13.7-3.4-17-4.1-10.1-2.2-14.6-5.6-16-12.1-.6-2.6 3.7-19 16.2-60.9 2.3-7.5 6.8-12 12-12 2.1 0 19.1 3.8 37.8 8.5z"/><path d="M506.6 479.2c-8.3 8.6-15.4 25.3-14.1 33l.7 4 2.3-6.5c4.5-13 13.9-25 20.6-26.4 2.8-.5 3-.9 2.5-3.6-1.5-7.4-5.2-7.5-12-.5zM486.3 623.1c-5.1 1.7-9.3 3.5-9.3 4.1 0 1.5 6 35.9 6.6 38 .6 2.1 3.7 2.3 11.9.6l5.8-1.1-.6-12.1c-.4-6.7-1-15.6-1.3-19.9-.7-7.7-.7-7.8-3.3-7.3-1.4.2-4 1-5.8 1.6-1.7.6-4.2 1-5.5.8-1.6-.3-.1-1.1 5-2.8 4.1-1.4 7.4-2.9 7.4-3.5-.1-1.6-1.3-1.4-10.9 1.6zm-4.6 8.7c.1 2.8 0 3.2-.7 1.7-1.1-2.5-1.2-5.5-.2-5.5.4 0 .8 1.7.9 3.8zm2.6 14.2c.3 1.1.1 1.8-.4 1.4-.5-.3-.9-1.2-.9-2 0-2 .7-1.7 1.3.6zm1.7 11.4c0 2.6-.6 1.8-1.4-1.9-.5-2.2-.4-2.6.4-1.5.5.8 1 2.4 1 3.4zM491.7 678.8c-3.5 3.8-1.2 10.2 3.7 10.2s7.5-7 3.8-10.3c-2.4-2.2-5.5-2.1-7.5.1zM740.4 602.5c-3.5 5.3 2.7 10.6 8.1 7.1 3.2-2.1 3.3-5.9.3-8-3.3-2.3-6.5-2-8.4.9zM722.4 672.1c-1.7 1.9-1.7 2.3-.3 4.7 1 1.9 2.4 2.8 4.7 3 4 .4 6.2-1.2 6.2-4.4 0-5.1-6.9-7.3-10.6-3.3zM677.8 710c-4.6 3.6-.5 9.5 4.9 7.1 3-1.4 2.9-5.7-.3-7.8-1.8-1.2-2.4-1.1-4.6.7zM694.8 714.1c-1 .5-1.8 2.1-1.8 3.4 0 4.2 7 6.2 9 2.6 1.4-2.7 1.3-3.7-.6-5.5-1.8-1.8-4.1-2-6.6-.5zM713.3 719.2c-2.3 3-2.2 4.8.3 6.4 3.6 2.4 7.4.6 7.4-3.5 0-2.9-1.4-4.1-5-4.1-.9 0-2.2.6-2.7 1.2zM732.8 722.7c-2.3.6-3.2 3.7-1.8 6.3 1.4 2.6 6.7 2.4 8.4-.3 2-3.1-2.3-6.9-6.6-6zM672.7 724.8c-3.2 3.5-1.4 7.2 3.5 7.2 2.1 0 3.2-.7 4-2.6 1.1-2.3 1-2.9-1.1-4.5-2.9-2.4-4.3-2.4-6.4-.1zM691.4 728c-2.7 1-3.7 3.6-2.4 6 2.2 4.1 9 3.1 9-1.3 0-4.1-2.9-6-6.6-4.7zM709.2 733.6c-4 2.7-2.2 7.4 2.8 7.4 2.9 0 5-1.6 5-4-.1-3.9-4.4-5.8-7.8-3.4zM727.2 738.2c-.7.7-1.2 2.1-1.2 3.3 0 4.4 5.2 6.1 8.3 2.7 2.3-2.5 2.1-3.8-.5-5.6-2.7-1.9-5-2-6.6-.4zM668.2 738.9c-.8.5-1.2 2.1-1 3.7.4 3.9 4.8 5.6 7.8 2.9 2.4-2.2 2.5-3.8.4-5.9-1.7-1.7-5.1-2.1-7.2-.7zM685.6 743.6c-3 2.9-1 7.4 3.2 7.4 5 0 6.9-4.2 3.4-7.3-2.3-2.1-4.6-2.2-6.6-.1zM704.2 748.2c-2.9 2.9-.3 7.8 4.2 7.8 1.8 0 4.6-2.7 4.6-4.5 0-3.6-6.2-5.9-8.8-3.3zM724.4 752c-5.2 2.1-3.1 8.4 2.6 7.8 3-.3 3.5-.7 3.8-3.1.2-1.9-.3-3.3-1.5-4.3-2.1-1.5-2.1-1.6-4.9-.4zM663.9 753.9c-2.1 1.6-2.2 2.2-1.1 4.5 2.1 4.7 9.2 3.1 9.2-2.1 0-2-2.5-4.3-4.8-4.3-.5 0-2 .8-3.3 1.9zM681.2 758.2c-1.9 1.9-1.4 5.6.8 6.8 4.3 2.3 9.2-2 7-6-1.2-2.3-5.9-2.7-7.8-.8zM701.2 761.7c-2.2.9-3.4 4.1-2.2 6.3 1.2 2.3 5.9 2.7 7.8.8 3.5-3.5-.9-9-5.6-7.1zM718.6 767.5c-2 2.1-2 3.9 0 5.9 3.9 4 10.6-.5 7.6-5.1-1.3-2.1-5.8-2.6-7.6-.8zM34.6 468.2c-.3 4-.8 19.7-1.1 34.8-.3 15.1-.8 30.4-1 34-.3 3.6-1 24-1.6 45.5-.6 21.4-1.4 49.3-1.8 62l-.9 23 2.5 5.9c2.4 5.9 2.4 6.1 2.4 38-.1 17.7-.4 53.4-.7 79.3l-.7 47.3h2.9c1.6 0 32.6.7 68.9 1.5 36.3.8 85.6 1.9 109.5 2.5 23.9.5 53.9 1.3 66.6 1.6l23.1.7 1.5-4.4 1.5-4.4 20.9-.6c11.5-.3 31.8-.7 45.1-.8l24.2-.1.7-3.4c.3-1.9.3-10.8-.1-19.8-.3-9-.9-25.5-1.3-36.8-.5-15.1-1-20.6-1.9-20.7-.7-.2-1.3.2-1.3.7 0 .6-1.3.4-3-.5-3.4-1.8-4-1.8-4-.5 0 .5.7 1 1.6 1 1.3 0 1.4.3.5 1.4-.9 1-.8 1.6.4 2.6.8.7 1.5 2.8 1.5 4.7 0 1.9.5 4.4 1.2 5.6 1 2 1 2.1-.5.8-1.1-.9-1.7-2.9-1.7-5.7 0-2.4-.5-4.4-1-4.4-.6 0-.8 1.5-.4 4 .5 3.2.3 4-.8 4-1.2 0-1.4-1-1-4.9.2-3 0-5.1-.7-5.5-.6-.4-1.1-.2-1.1.3 0 .6-.7 1.1-1.5 1.1-1.4 0-1.6-.5-1.9-4-.2-2.2-2.9-6-4.2-6-.7 0-1.4.6-1.7 1.4-.4 1 0 1.2 1.5.8 1.3-.3 1.9-.1 1.5.5-.9 1.5-4.9 2.1-7.3 1.2-1.7-.7-1.7-.8.4-.8 2.1-.1 2.2-.3.8-1.6-3-3-4.7-.6-3 4 .6 1.3.9 1.4 1.6.3.7-1 1.1-1 1.5-.1.2.7.9 1.3 1.4 1.3.6 0 .7-.5.4-1-.4-.6.5-1 1.9-1s2.6.5 2.6 1.1c0 .6.7 1.7 1.5 2.5 2.2 2.2 1.9 3.7-.5 2.4-1.6-.9-1.8-.8-1.4.5.4.9.1 1.5-.7 1.5-.8.1 0 .8 1.6 1.7 1.7.9 2.5 1.8 1.8 2-.7.2-1 1-.7 1.8.3.7 0 1.6-.6 2-.6.3-.9.2-.8-.3.4-1.5-6.2-9.3-7.3-8.6-.6.4-.6 1.1.1 1.9.9 1.1.7 1.2-.9.8-1.2-.3-1.9-.9-1.6-1.3.3-.4-.2-2.3-1-4.1-1.4-3.2-1.5-3.3-2.1-1.2-.3 1.3-1.1 2.3-1.8 2.3-.6.1 0 1 1.3 2 2.2 1.9 2.2 2 .3 2-1.9 0-3.4-2-3.6-5-.1-.8-.9-1.5-1.9-1.6-1.4-.2-1.4-.1-.1.3 1.4.4 1.3.7-.5 1.9-1.8 1.3-2.3 1.3-4.6-.2-1.4-.9-2.2-2-1.9-2.5.3-.5.1-.9-.4-.9-1.9 0-2-2.9-.2-5 1.7-1.9 1.9-2 2.8-.4.5.9 1.4 1.4 2.1 1 1.5-1 1.4-2.6-.3-2.6-.8 0-1.6-.7-1.9-1.4-.4-1.1-.1-1.3 1.1-.9 1.4.5 1.5.4.4-.8-1-1.1-1.6-1.1-3.3-.1-1.2.8-2.3 1.1-2.6.9-.3-.3.5-1.1 1.7-1.7 1.9-1 2.2-1.8 1.7-5-.3-2.5-.1-4 .7-4.3.6-.2.3-.3-.6-.2-2.1.4-2.4-1.1-.5-1.8.6-.3.8-.6.2-.6-1.8-.1-6.8 4.6-5.6 5.3.6.4 1.1.2 1.1-.3 0-.6.8-1.1 1.7-1.1 1.3 0 1.4.3.5 1.2-1.7 1.7-1.5 2.8.5 2.8 1.3 0 1.4.3.5 1.2-.9.9-1.6.8-2.9-.3-2-1.7-5.3-1.4-5.3.4-.1.7-.9.1-2-1.2-1.1-1.2-1.8-2.7-1.5-3.1.3-.5.1-1.1-.5-1.5-.5-.3-1-1.5-1-2.6 0-1-.5-1.9-1.1-1.9-.6 0-.9-.7-.6-1.4.4-1 .1-1.3-.9-.9-1.6.6-1.9 3.3-.4 3.3.6 0 1 1.1 1 2.5 0 1.8-.4 2.3-1.5 1.9-.8-.4-1.5-.1-1.5.5s.7 1.1 1.5 1.1 1.5.4 1.5 1c0 .5.5 1 1.1 1 1.5 0 3.9 2.6 3.2 3.4-1.1 1.1-2.3.6-2.3-1 0-1-.6-1.4-1.5-1-.8.3-1.5.1-1.5-.4 0-.6-.7-1-1.5-1s-1.5-.9-1.5-2.1c0-1.3-.4-1.8-1.2-1.3-.7.4-.8.3-.4-.4s.1-1.2-.8-1.2-1.6-.7-1.6-1.5c0-1.9.7-1.9 2.6 0 .9.8 2 1.5 2.5 1.5 1.6 0 1-1.9-1.1-3-2.5-1.3-2.6-3-.2-3 2.3-.1 6.9-3.6 5.9-4.7-.5-.4-1.2-.1-1.7.7-.6 1-2.2 1.3-4.6 1.1-2.2-.2-3.4.1-3 .7.9 1.4-.4 4.2-1.9 4.2-.6 0-2-.9-3-2-1.4-1.6-1.6-2.3-.7-3.2 2-2 1.5-4-.9-3.3l-2.1.7 2.1-2.1c1.2-1.2 2.3-2.1 2.5-2.1 1 0 1.3 5.7.3 6.8-.8 1-.7 1.6.4 2.3 1.9 1.2 2.9 1.1 2.9-.2 0-.5-.4-.7-1-.4-1.5.9-1.2-.9.6-3.1.8-1 1.3-1.3.9-.7-.4.9.2 1.3 2 1.3 1.5 0 2.4-.4 2-1-.3-.6.1-1 .9-1 2.1 0 2-1.2-.2-3.1-1.5-1.3-2-1.3-3-.2-1 1-1 1.3-.1 1.3.7 0 1 .3.7.6-.9.8-4.9-1.6-4.3-2.5 1.2-2-2.8-2-4.5-.1-1.3 1.5-2 1.7-2.5.9-.4-.6-.2-1.5.5-1.9.7-.4-.6-1.2-3.4-1.9-5.7-1.4-5.6-1.4-5 .6.3 1-.2.7-1-.7s-1.5-1.9-1.6-1.3c0 .7-.5 1.3-1.1 1.3-.5 0-.8-.4-.5-.9 1-1.6-7.6-2.1-9.1-.5-.8.8-2.4 1.9-3.5 2.5-1.5.8-1.7 1.3-.8 1.9.8.5-.3 1-2.9 1.5-3.2.5-4.7.3-6-.9-1-.9-2.2-1.6-2.8-1.6-.6 0-3.6-1.2-6.7-2.6-3.1-1.4-6-2.3-6.6-1.9-.5.3-1 .2-1-.4 0-1.9-16.8-8.8-18-7.4-.3.5-3.3 3.4-6.7 6.7l-6.1 5.8-5.3-1.5c-3-.8-9.8-2.3-15.2-3.2-5.3-1-10-2.1-10.3-2.6-.3-.5.8-1.7 2.4-2.6 5.2-3.2 8.8-6.8 17.4-17.3 9.3-11.4 17.8-20.1 17.8-18.3 0 .6-1.9 3.5-4.3 6.5-13.3 16.5-20.3 26.9-19 28.2 1.5 1.5 5.5.3 8.9-2.6 2-1.7 5.8-6.5 8.6-10.6 5.2-7.7 17.7-21.6 21.1-23.4 2.6-1.4 2.3-.9-10.3 15.7-13.3 17.5-16 21.5-16 23.7 0 5.3 7.6-1 18.6-15.5 4.3-5.6 10.4-13.5 13.7-17.4 3.2-4 5.5-7.8 5.1-8.4-.9-1.6-4.6 2.5-20.7 23.3-3.8 4.9-7.1 8.8-7.4 8.8-.3 0-.1-.6.4-1.3.5-.6 3.4-4.4 6.4-8.2 12.6-16.1 19-25.8 18.5-28-.5-1.9-.2-2.2 1.9-1.7 1.4.2 2.8.8 3.1 1.3 1.3 2.2 4.5.5 11-5.9 2-1.9 2.8-1.8 28.9 4.5l11 2.6 4.8-2.1c2.7-1.2 4.6-2.6 4.2-3.2-.3-.5 0-.7.9-.4.8.3 2.4 0 3.6-.6 1.6-.9 3.4-.9 6.8-.1 2.6.6 6.3 1.3 8.2 1.6 1.9.3 4.3.8 5.2 1.1 1.3.4 1.6.1 1.2-1-.3-.9-.1-1.6.5-1.6s1.1.4 1.1 1c0 .5.5 1 1.1 1 .5 0 .8-.4.5-.9-1-1.5 2.2-2.1 3.4-.6.7.8 1.6 1.2 2.1.9.5-.3.9.2.9 1 0 1.9-1.1 2.1-2.8.4-.9-.9-1.5-.9-2.3-.1-1.3 1.3 3.3 2.7 6.1 1.8 2-.6 1.7-3.2-.4-4.8-.8-.6-.7-1 .1-1.3.7-.3 1-1.1.7-1.8-.7-1.8 2.2-4.1 3.2-2.5.4.8.3.9-.4.5s-1.2-.1-1.2.8c0 .8.6 1.7 1.3 1.9.7.3.5.6-.5.6-2.2.1-2.2.4-.2 4.6l1.6 3.4 3-3.4c1.6-1.9 2.7-3.9 2.4-4.4-.4-.6.3-.8 1.6-.6 1.3.3 4.5.9 7.2 1.4 5.7 1 7.6.6 7.5-1.8 0-1-.2-1.1-.6-.4-.7 1.9-3.3 1.6-3.3-.5-.1-1.6-.2-1.5-1.5.2s-1.4 1.5-.8-2c.3-2.2.2-3.6-.2-3.2-.7.6-3.5-1.4-3.5-2.6 0-1.3 6 2.8 6.1 4.2 0 1.4.2 1.3.8-.2.7-1.9.8-1.8 1.4.4.3 1.3.9 2.1 1.2 1.8.8-.8-1.4-5-2.3-4.4-.4.2-1.6-.3-2.7-1.1-2-1.5-2-1.5 0-1 1.1.2 2.8.8 3.8 1.2 1.4.6 1.7.2 1.7-2.1-.1-2.4-.2-2.6-1-1.2-.7 1.2-1.7 1.4-3.7.9-2.6-.7-4.5-3.1-2.4-3.1.6 0 1.1.5 1.1 1.1 0 .5.5.7 1 .4 1.8-1.1 1-2.5-1.5-2.5-1.8 0-2.3-.4-1.9-1.5.9-2.2-4.5-2-6.2.2-1.3 1.7-1.3 1.7-1.4-.1 0-1.5-.3-1.6-1.5-.6-1 .9-1.5.9-1.5.1 0-.6-.8-1.1-1.7-1.1-1.2 0-1.4.3-.6.8.8.5.9 1.3.3 2.2-.8 1.2-1.1 1.2-2.7-.1-3.5-3-4.6-3.3-3.8-1 .5 1.6.3 2-.8 1.5-.8-.3-1.8 0-2.2.5-.3.6-1.1.9-1.6.6-1.4-.9-1.1-2.5.6-2.5 2.3 0 1.8-1.6-.5-1.7-1.1-.1-1.8.2-1.5.6.2.5-.2 1.4-.9 2-1.2 1-1.3.8-.9-.8.5-1.9.1-2.1-4-2.1-4.9 0-6.6 1.2-4.7 3.5.7.9.8 1.5 0 2-.5.3-1-.1-1-.9 0-.9-.4-1.6-1-1.6-.5 0-.7-.7-.4-1.5.5-1.2-.4-1.5-4.5-1.5-3.7 0-5.3.4-5.7 1.5-.4.8-1 1.5-1.5 1.5-.4 0-.6-.6-.3-1.4.4-1.1-.7-1.4-5.6-1.4-5.2.1-6.1.3-5.7 1.7.5 2.1-1.9 4.7-2.6 2.8-.2-.7 0-2 .5-3 .7-1.4.4-1.7-2.3-1.7-2.4 0-3 .4-2.5 1.5.3.9 0 1.5-.9 1.5-.8 0-1.4-.5-1.3-1.1.4-1.6.8-1.6-34.2-2.3-17.3-.4-34.4-.9-38-1.1-3.6-.2-14.1-.7-23.5-1-17.2-.6-61.3-3.9-71.5-5.3-3-.4-6.9-.8-8.5-.7-1.7 0-3.6-.5-4.3-1.2-.7-.7-2.2-1.3-3.2-1.3s-2.2-.5-2.5-1c-1.7-2.7-2.4-.1-2.7 9.5-.2 5.8 0 10.5.4 10.5s.6 3.1.5 6.8l-.2 6.8 5-4.1c2.8-2.2 6.6-5 8.6-6.2l3.6-2.3 6.4 2.4c3.5 1.3 9.1 3.1 12.4 4.1 3.3.9 7 2 8.2 2.5 1.4.6 4.1.3 8.2-1 4.7-1.4 7-1.6 9.4-.9 10 3 36 9.9 37.3 9.9.8 0 5.5-2.3 10.5-5.1l9.2-5.1 9 3.5c5 1.8 9.2 3.8 9.4 4.4.2.5-.7 1.4-1.9 2-4.7 2.1-21.7 19.4-27.6 28-6 8.9-9.8 13.1-10.7 12.1-.3-.3 4.8-7.5 11.3-15.9 15.1-19.7 15.8-20.7 14.4-22.1-2.6-2.6-14.5 7.6-27.7 23.6-8.7 10.6-12.5 14.5-12.5 13 0-.6 5.9-7.8 13-16.1 7.2-8.4 13-15.7 13-16.2 0-1.2-3-1.5-3-.4 0 .5-1.4 2.3-3.1 4.1l-3 3.3-2-2.5c-2.1-2.7-15.7-9.8-17.1-9-1.8 1.2-.4 2.4 6.8 5.8 8.2 3.9 9.2 6.2 2.1 5.1-4.8-.9-8.2-2.7-16.7-8.9-4.4-3.3-7.2-4.6-9.5-4.6-4.2 0-6.9 2.4-5.6 4.9 1.4 2.6 2.6 3.4 14.4 9.6 5.9 3.1 10.7 6.1 10.7 6.6 0 1.3-2.7.1-11.7-5.3-4.5-2.7-10.2-5.8-12.8-6.9-8.8-3.9-11.7.7-4 6.2 2.5 1.8 4.5 3.4 4.5 3.5 0 .2-2.1-.6-4.6-1.8-3.4-1.4-5.8-1.8-8.5-1.4l-3.9.6 4.5-6.2c3.1-4.2 4.2-6.4 3.4-6.9-.7-.4-4 2.9-9 9-7.3 9-16.2 18.4-14.4 15.1.5-.8 3.4-5.3 6.5-10 6.8-10.1 12-19.2 12-20.8 0-4.9-11.7 5.8-23.8 21.7-2.6 3.3-4.8 5.8-5 5.6-.2-.2 1.6-3.2 4.1-6.7 7.3-10.3 10.1-15.8 8.9-17-1.4-1.4-4.2.4-10.9 7.2-5.7 5.7-6.8 5.7-2.9-.1 4.8-7 6.6-13.9 3.7-13.9-1.6 0-11.3 11.9-10.6 13 .5.8 1.3.6 2.6-.6 1-.9 1.9-1.4 1.9-1 0 1.2-5.3 9.1-6.6 9.9-.8.4-1.4 1.9-1.4 3.3 0 3.7 2.1 11.4 3.1 11.4.5 0 .6.7.3 1.5-1.1 2.7 3.3 1.7 7.2-1.7 2-1.8 5.8-6.1 8.4-9.5 5.6-7.4 12-14.6 12.5-14.1.2.2-3.2 5.7-7.6 12.3-9.8 14.7-12.2 19.1-11.5 21.3.7 2.1-.3 3.6-2.6 4-1.1.2-2-1-3-3.8l-1.3-4-31.5-.5c-17.3-.3-32.6-.6-34-.9-1.4-.2-4.3-.4-6.5-.5l-4.1-.1.2-11.3c.1-6.1.5-25.4.8-42.7.4-17.3.7-35.5.7-40.3l.1-8.8 3.7.6c13 2.1 70.3 2.2 93.4.1 7.6-.7 24-1.8 28.6-1.9 3.1-.1 3.5.2 5.2 4.8 1.1 2.8 1.7 5.5 1.5 6.2-.3.6.2 1.4 1.1 1.7 1.8.7 1.9 1.5-3.1-12.9-1.9-5.5-4-13.8-4.7-18.5-.7-4.7-1.3-8.6-1.4-8.8-.1-.1-3.8 1.2-8.1 2.9-13.9 5.6-35 8.7-36.1 5.3-.3-.8 2.1-1.4 6.4-1.8 7.9-.8 24.1-4.4 24.7-5.5.3-.4-2.1-.4-5.2 0-7.7 1.1-50.5 2.4-52.6 1.6-.9-.4-1.3-1.3-1-2.2.5-1.3 3.4-1.5 18.8-1.5 19.2 0 38.4-1.3 47.8-3.1 5.6-1.1 5.7-1.2 6.3-5.3.4-2.2 3.2-11.5 6.2-20.6 5.2-15.5 5.5-17 5.6-26.5 0-12.2-1.2-15.8-8.8-26.2-3.5-4.8-6.2-9.9-7.3-13.5l-1.7-5.8H35.2l-.6 7.2zM164 510c12.3 1.1 18.8 1.8 23.3 2.7l2.8.5-.3 9.1c-.2 6.1-.7 9.2-1.5 9.5-1 .3-1.3-1.7-1.3-7.6v-8l-4.2-.6c-17.9-2.5-45.1-3.8-69.8-3.2-14.6.3-27.5.8-28.7 1.2-1.9.5-2.3.2-2.3-1.5 0-1.3.7-2.2 1.8-2.2 23.5-1.9 57.9-1.8 80.2.1zm9.1 6.9c13.5 1.4 13 1.1 12.7 9l-.3 6.6-5.5.7c-3 .3-17.9 1.1-33 1.8-26.2 1-65 .2-78.2-1.6-4.3-.6-4.7-.9-5-3.8l-.4-3.1-1 3.5c-.6 1.9-.7 3.6-.2 3.8.4.2.8 2.1.8 4.2 0 3.2-.8 4.8-5.1 9.7-2.8 3.2-5.8 7.3-6.6 9.1-1.6 3.8-2.7 38.9-3.9 123.2-.3 26.7-.9 48.9-1.1 49.3-.3.4-1 .6-1.6.4-1.3-.4-1.2-21.8.3-102.7 1.4-74 1-71 9.6-80.2 5.3-5.7 5.8-7.6 4.5-17.2-1.4-9.6-1.4-11.6-.1-11.6.6 0 1 1.5 1 3.4 0 4.5 1.7 5.5 2.7 1.6 1.3-4.8 2.8-3.5 3.3 2.7l.4 5.8.6-6.4c.5-6.2.6-6.5 3.5-7.3 10-2.5 80.5-3.2 102.6-.9zM342 640c0 .5-.2 1-.4 1-.3 0-.8-.5-1.1-1-.3-.6-.1-1 .4-1 .6 0 1.1.4 1.1 1zm15 1.4c0 .7-.7 2.1-1.6 3.2-1.5 1.9-1.5 1.8-.9-.3.3-1.2.1-2.5-.6-2.8-.8-.6-.8-1 .2-1.6 1.6-.9 2.9-.3 2.9 1.5zm27.4 2.4c-.1.2-1.2-.1-2.3-.8-1.6-.8-2.1-.8-2.1.1 0 .7-.3.9-.7.6-.3-.4.2-1.5 1.3-2.5 1.8-1.8 1.9-1.8 3 .2.6 1.2 1 2.2.8 2.4zm-75.1-.6c-.2.5.1 1.6.9 2.5 1.1 1.4 1.1 1.6-.2 1.1-.9-.2-1.6-1.9-1.8-3.9-.2-2.5 0-3 .7-1.9.5.8.7 1.8.4 2.2zm51.7 1.3c-.7.9-.8 1.5-.1 1.9 1.2.8-.7 5.6-2.2 5.6-.5 0-.4-.7.3-1.5.6-.8.9-1.9.5-2.5-1-1.6.4-6.2 1.6-5.5.7.5.6 1.1-.1 2zm8.3-.9c1.1-1.1 2.4-1.5 4.2-1 3.6.9 3.1 2.3-.7 2.1-1.8 0-3.9.1-4.7.4-.9.2-1.6-.4-1.8-1.6-.3-1.9-.2-1.9.5-.1.8 1.7.9 1.7 2.5.2zm-4.5.6c-.2.6-1 1.4-1.6 1.6-.7.2-1-.2-.6-1.2.7-1.8 2.8-2.2 2.2-.4zM353 646c0 1.1-.7 2-1.5 2s-1.5-.5-1.5-1.1c0-.5.5-.7 1-.4.6.3 1-.1 1-.9 0-.9.2-1.6.5-1.6s.5.9.5 2zm-46 0c0 .5-.2 1-.4 1-.3 0-.8-.5-1.1-1-.3-.6-.1-1 .4-1 .6 0 1.1.4 1.1 1zm36 0c0 .5-.2 1-.4 1-.3 0-.8-.5-1.1-1-.3-.6-.1-1 .4-1 .6 0 1.1.4 1.1 1zm31 .5c2 2.4.6 2.8-1.5.5-1-1.1-1.3-2-.8-2 .6 0 1.6.7 2.3 1.5zm-45.9.8c-.1 1.2-1.5.9-1.9-.4-.3-.6.1-1 .8-.8.6.3 1.1.8 1.1 1.2zm20.9-.2c0 .7.8 1.8 1.7 2.5 1.7 1.1 1.6 1.4-.9 3.7-1.8 1.7-2.3 2.7-1.5 3 .7.3.5.6-.5.6-2.5.1-3.3-2-1-2.6 2.2-.5 3.6-2.9 2.6-4.4-.3-.5-1-.7-1.5-.4-.5.4-.9-.3-.9-1.4 0-1.2.5-2.1 1-2.1.6 0 1 .5 1 1.1zm35-.1c0 .5-.4 1-.9 1-.6 0-1.3-.5-1.6-1-.3-.6.1-1 .9-1 .9 0 1.6.4 1.6 1zm-37.4 3.3c2.1 1.2 1.7 2.7-.6 2.7-1.6 0-2-.6-1.9-3.3 0-1.7.3-2.5.6-1.7s1.2 1.9 1.9 2.3zm20.9-.9c1.7-2.3 2-1.1.3 1.5-1.1 1.8-1.3 1.8-2.5.3-.7-.9-1.2-2.4-1.2-3.2 0-.8.5-.4 1 .9.9 2.3 1 2.4 2.4.5zm11.5-1.3c0 .5.4.8.9.5.5-.4.7.3.4 1.4-.4 1.6-.2 1.9 1.3 1.3 1.1-.3 2.2-1.1 2.6-1.7.4-.6 1-.7 1.4-.3.5.4-.2 1.7-1.4 2.9-1.7 1.8-2.3 1.9-3.6.8-1.3-1-1.9-1-3.1 0-.9.7-1.4 1.9-1.1 2.7.3.7.1 1.3-.4 1.3-.6 0-1 .7-1 1.5 0 1.7-1.6 2-2.5.5-.3-.5.3-2 1.4-3.2 2.2-2.3 2.8-4.4 1.1-3.3-.5.3-1-.1-1-1 0-1.2.4-1.4 1.9-.5 1.4.7 2.2.7 2.7-.2.4-.6.2-1.4-.4-1.6-1.5-.5-1.6-2.2-.2-2.2.6 0 1 .5 1 1.1zm-40 .3c0 1.1-1.9 1.5-2.5.6-.3-.5.1-1 .9-1 .9 0 1.6.2 1.6.4zm2.4 1.1c-.4.8-.8 1.5-1 1.5-.2 0-.4-.7-.4-1.5s.4-1.5 1-1.5c.5 0 .7.7.4 1.5zm15.2-.3c-.3.7-.9 2.1-1.2 3-.8 2.2-2.4 2.4-2.4.3 0-.8.4-1.5 1-1.5.5 0 .7-.7.4-1.5-.4-1 0-1.5 1.1-1.5 1 0 1.4.5 1.1 1.2zm8.4 3.9c0 .6-.4.7-1 .4-.5-.3-1-1.1-1-1.6 0-.6.5-.7 1-.4.6.3 1 1.1 1 1.6zm-37-.7c0 .3-.4.8-1 1.1-.5.3-1 .1-1-.4 0-.6.5-1.1 1-1.1.6 0 1 .2 1 .4zm34.4 2.8c-.3.4-1.5.8-2.6.8-2.1 0-2.1-.1-.3-2 1.4-1.5 2.1-1.7 2.6-.8.4.7.5 1.6.3 2zm-45 .3c1.1.8 1.5 1.5.9 1.5-1.9 0-4.3-1.2-4.3-2.1 0-1.3 1.2-1.1 3.4.6zm35.3.1c-.3.3-1.2.4-1.9.1-.8-.3-.5-.6.6-.6 1.1-.1 1.7.2 1.3.5zm-39.7 1.8c0 .3-.4.8-1 1.1-.5.3-1 .1-1-.4 0-.6.5-1.1 1-1.1.6 0 1 .2 1 .4zm8.1 2.9c-1 .9-1.1.8-.5-.6.3-1 .9-1.5 1.2-1.2.3.3 0 1.1-.7 1.8zm-121 9.3c9.4 6.7 11.7 7.7 19 8.3l6.6.6-10.4 12.5c-5.7 6.8-10.7 13.7-11 15.2-.4 2.1-1.1 2.8-2.9 2.8-1.6 0-3.1 1.1-4.6 3.4-2 3.1-7 5.7-6.5 3.4.1-.5-8.5-4.3-19-8.5-10.6-4.3-19.3-8.2-19.3-8.8 0-1.2 8.7-10.5 9.8-10.5.4 0 1.5.9 2.5 2 1 1.2 6.2 5 11.7 8.6 14.5 9.5 13.2 9.8-4.9 1.1-5.8-2.8-10.9-5.3-11.3-5.5-.5-.2-.8.4-.8 1.3 0 3 34 17.9 36.1 15.8 1.9-1.9-.4-4.2-13.7-12.8-7.4-4.8-13.7-9.2-14.1-9.8-1.5-2.4 5.9.9 15.2 6.7 15 9.5 17.6 10.4 18.9 6.9 1.3-3.2-3-6.8-15.7-13.3-12.7-6.5-15.4-9-9.7-9 3.2 0 5.4 1.2 13.5 7.2 9.5 7 19.5 10.1 19.5 5.9 0-2.1-2.9-4.5-15.6-12.4-9.2-5.8-13.7-9.5-9.8-8.1 1 .4 6.1 3.2 11.1 6.2 13.4 7.9 20.3 9.7 20.3 5.3 0-2.9-1.3-3.8-13.4-10.3-6.6-3.5-12.1-6.9-12.4-7.6-.9-2.7 4.7-1 10.9 3.4zm-52.2 4.1c-1.3 2.1-3.7 5.9-5.4 8.5-1.6 2.5-3.5 5.5-4.1 6.5-1.5 2.3-2 1.7-2.8-2.9-.6-3.5-.4-3.9 3.1-6.2 2.1-1.3 5.4-4 7.2-6 1.9-2 3.7-3.6 3.9-3.6.2 0-.7 1.7-1.9 3.7zm21.1 7.2c0 .5.3 1.6.6 2.5.5 1.2 0 1.6-2 1.6-3 0-3.1-.3-1.4-3 1.3-2.1 2.8-2.7 2.8-1.1zm27.9 5.6c3.6 2.1 6 4 5.3 4.3-1.2.4-11.7-6.2-12.9-8.1-.7-1.2-.8-1.2 7.6 3.8zm-.5 12c1.1.8 1.7 1.8 1.3 2.1-.6.6-14.7-8.1-14.7-9.1 0-.7 10.9 5 13.4 7zm106.9 17.8c-.4.7-.6 2-.5 2.9.2 1-.2 1.8-.7 1.8-1.2 0-1.4-1.4-.5-4.7.4-1.3 1-2 1.5-1.7.5.3.6 1.1.2 1.7zm11.4 2.1c-1 2.6-2.5 1.8-1.9-1 .3-1.7.8-2.2 1.5-1.5.5.5.7 1.7.4 2.5zm-16.3-.3c-.6 1.1-2.4.2-2.4-1.1 0-.5.7-.7 1.5-.4.8.4 1.2 1 .9 1.5zm-147.9.9c.3.5.1 1-.4 1-.6 0-1.1-.5-1.1-1 0-.6.2-1 .4-1 .3 0 .8.4 1.1 1zm159.8 3c-.3 1.1-.7 2-.9 2-.2 0-.4-.9-.4-2s.4-2 .9-2 .7.9.4 2zm-23.3 0c0 .5-.4 1-1 1-.5 0-1-.5-1-1 0-.6.5-1 1-1 .6 0 1 .4 1 1zm20.7-.4c-.3.3-1.2.4-1.9.1-.8-.3-.5-.6.6-.6 1.1-.1 1.7.2 1.3.5zm7.9 3.1c-.6.6-3.6-.9-3.6-1.8 0-.5.9-.4 2 .3 1 .7 1.8 1.4 1.6 1.5zm4.2.9c-.3 1.4-.5 1.2-1-.9-.3-1.9-.2-2.5.4-1.9.6.6.8 1.8.6 2.8zm-25.8-.4c0 1.8-.2 2-.9.8-.6-.8-.7-1.8-.5-2.2.9-1.4 1.4-.9 1.4 1.4zm13-.2c0 .5-.7 1-1.6 1-.8 0-1.2-.5-.9-1 .3-.6 1-1 1.6-1 .5 0 .9.4.9 1zm7 5.2c0 .4-.5.8-1.1.8-.5 0-.8-.4-.4-.9.3-.5.1-1.2-.5-1.6-.5-.3-1-1.2-1-1.8.1-1.3 3 2.2 3 3.5zm3.5-2.2c.3.5.1 1-.4 1-.6 0-1.1-.5-1.1-1 0-.6.2-1 .4-1 .3 0 .8.4 1.1 1zm-7.5 2.4c0 .2-.7.6-1.5 1-.8.3-1.5.1-1.5-.4 0-.6.7-1 1.5-1s1.5.2 1.5.4zm9.6 1.1c.4.8 1.4 1.5 2.3 1.6 1.1 0 .9.3-.6.9-1.3.5-2.3 1.5-2.3 2.1 0 .7-.3.9-.6.6-.4-.4-.2-1.3.5-2.1.9-1.1.8-1.7-.4-3-.9-.9-1.1-1.6-.5-1.6.6 0 1.3.7 1.6 1.5zm6.4 1.5c0 1.1-.4 2-.8 2s-.8-.9-.9-2c-.1-1.1.2-2 .8-2 .5 0 .9.9.9 2zm-13.3 1c.1 1.6-.1 1.7-1.2.7-.7-.6-1.1-1.5-.8-2 .8-1.3 1.9-.7 2 1.3zm-19.7 2c0 2.2-.4 2.8-1.5 2.4-.8-.4-1.5-1-1.5-1.6 0-.5.5-.6 1-.3.6.3 1-.3 1-1.4 0-1.2.2-2.1.5-2.1s.5 1.3.5 3zm-220.5.1c9.9.7 32.5 1.3 50.2 1.3 30.9.1 32.3.2 32.3 2s-1.4 1.8-41.7 1.3c-36.3-.5-61.7-1.8-63.1-3.2-1.1-1.1 1-3.6 2.5-3.1 1 .2 9.9 1 19.8 1.7zm229.5 2c0 .6-.4.7-1 .4-.5-.3-1-1.1-1-1.6 0-.6.5-.7 1-.4.6.3 1 1.1 1 1.6zm-68-.1c0 .5-.2 1-.4 1-.3 0-.8-.5-1.1-1-.3-.6-.1-1 .4-1 .6 0 1.1.4 1.1 1zm83 1.4c0 .2-.7.7-1.6 1-.8.3-1.2.2-.9-.4.6-1 2.5-1.4 2.5-.6zm14.3 1.5c-2.3 1.6-4.2 5.5-3.2 6.7.7.8.7 1.4-.1 1.9-.5.3-.7 1.8-.4 3.2.7 2.5.7 2.6-1.2.7-1.1-1-1.6-2.1-1.1-2.3.5-.2.3-.7-.4-1.2-1.1-.6-1.1-1.1-.2-2 .6-.6.9-1.8.6-2.5-.3-.8-.1-1.4.3-1.4.5 0 1.5-.4 2.3-.9 1.2-.8 1.2-1.3.3-2.4-1-1.2-.8-1.3 1.4-.9 1.4.2 2.2.7 1.7 1.1zm-22.3 0c0 .5-.6 1.4-1.4 2-1 .8-1.6.8-2.5-.2-.6-.8-.8-1.7-.4-2 .9-1 4.3-.8 4.3.2zm15 3.2c0 1-.4 1.9-1 1.9-.5 0-1-1.2-1-2.6 0-1.4.4-2.3 1-1.9.6.3 1 1.5 1 2.6zm23.8-2c-.2.6-.8 1-1.3 1s-1.1-.4-1.3-1c-.2-.6.4-1.1 1.3-1.1s1.5.5 1.3 1.1zm-35.8 1c0 .6.7.9 1.5.5 1-.4 1.5.1 1.5 1.4 0 2.5-1.1 2.5-3.3 0-2-2.3-2.1-3-.7-3 .6 0 1 .5 1 1.1zm8 .9c0 .5-.2 1-.4 1-.3 0-.8-.5-1.1-1-.3-.6-.1-1 .4-1 .6 0 1.1.4 1.1 1zm15.8-.3c-.9.2-2 1.3-2.3 2.3-.7 2.3-3.2 3.3-3.9 1.5-.3-.9 0-1.2 1-.8.7.3 1.4 0 1.4-.6s-.5-1.1-1.1-1.1c-2.7 0 .3-1.5 3.3-1.6 1.8-.1 2.5.1 1.6.3zm-32.3 1.3c.3.5.1 1-.4 1-.6 0-1.1-.5-1.1-1 0-.6.2-1 .4-1 .3 0 .8.4 1.1 1zm41.9-.1c1.7.6 1.7.8.3 1.4-.8.3-1.8.1-2.1-.6-.3-.7-.3-.2 0 1 .3 1.3.1 2.3-.5 2.3s-1.1-.9-1.1-2-.5-2-1.1-2c-.5 0-.7.4-.4 1 .3.5-.1 1-.9 1s-1.7-.4-2-.9c-1.2-1.8 4.2-2.6 7.8-1.2zm-37.4 1c0 .5 1.2 1.2 2.8 1.6 1.5.4 2.1 1 1.4 1.2-1.9.7-.4 2.3 1.6 1.7 1.6-.5 1.6-.5 0 .6-1.4.8-1.5 1.6-.7 3.7.5 1.5.8 3.2.5 4-.8 1.9.8 1.6 2.8-.6 1.7-1.8 1.7-1.9-.1-2.4-1.1-.3-.8-.5.7-.3 1.4.1 3.4.7 4.5 1.5 1.9 1.2 1.9 1.2-.4.7-1.5-.3-3 .3-4.5 1.7-2.5 2.5-7.9 3.3-11.7 1.8-1.3-.5-1.9-1-1.4-1.1 4-.6 5.3-.5 4.9.2-.6 1 1 1.1 1.9.1.4-.3.2-1.3-.5-2-.9-1.1-.9-1.7.3-2.4 1.2-.8.6-1.3-1.3-1.1-.3.1-.9-.5-1.2-1.3-.3-1 .1-1.5 1.4-1.5 1.3 0 1.8-.5 1.4-1.5-.4-.8-1.2-1.5-2-1.5s-1.4-.2-1.4-.4-.3-1.1-.6-2c-.3-.9-.1-1.6.5-1.6s1.1.4 1.1.9zm-4.9 2.1c1.1 0 1.8.4 1.5.9-.4.5-.2 1.1.3 1.3.4.1 1.2 1.3 1.5 2.5.6 2 .4 2.3-1.8 2.3-1.9 0-2.4.4-1.9 1.6.4 1.1.9 1.2 1.6.5 1.5-1.5 3.7-1.4 3.1.2-.3.8-1 1.4-1.7 1.4s-2.2.3-3.4.7c-1.9.6-2.3.4-2.3-1.3 0-1.1-.8-2.5-1.9-3-1-.6-2.1-1.9-2.4-3-.4-1.5 0-1.8 1.9-1.6 2.3.2 2.7-.3 2.5-3.5 0-1 .1-1.1.5-.3.3.7 1.5 1.3 2.5 1.3zm16.3.4c-.3.9-1 1.6-1.5 1.6-.6 0-.5-.9.1-2.1 1.3-2.4 2.4-2 1.4.5zm21.4 1.1c-1 .8-5.2 2.6-4.6 2 .4-.4.3-1.6-.2-2.6-.9-1.6-.8-1.7 2-.7 1.7.6 3 1.1 2.8 1.3zm6.6 0c.3.8.1 1.5-.4 1.5-1.8 0-1 2.2 1 2.7 1.1.3 2 1 2 1.5 0 2.4 3.6 5.4 6.2 5.1 1.5-.1 3 .2 3.3.8.4.5-2.1.9-5.9.9-6.4 0-8.2-1-5.1-2.8 1.6-.8 1.1-4.2-.6-4.2-.4 0-.6.6-.3 1.3.3.8-.5 2.5-1.6 3.8-1.2 1.3-1.9 1.9-1.6 1.2.4-.6.2-1.4-.4-1.8-.5-.3-1 .1-1 1.1 0 1.3-.3 1.4-1.5.4-.8-.6-1.9-.9-2.4-.6-1.4.9-2-.6-1-2.9.6-1.6.8-1.6.8-.3.1 1.1.8 1.5 2.7 1.3 3.5-.3 4.5-2.2 3.7-6.8-.6-3.7.9-5.3 2.1-2.2zm-12.8 2.4c-1 1.6-3.2 1.3-4.7-.7-1.1-1.4-1.1-1.5.1-.5 1.9 1.8 3 1.6 3-.4 0-1.2.3-1.4 1.1-.6.6.6.8 1.6.5 2.2zm-54.1.9c-.3.3-1.1 0-1.8-.7-.9-1-.8-1.1.6-.5 1 .3 1.5.9 1.2 1.2zm40.2.2c.2 1.7-.1 1.8-1.8 1-2.4-1.3-2.5-3-.1-3 1.1 0 1.8.8 1.9 2zm22.6.2c.6 2-.6 3.7-2.5 3.8-.5 0-.8-1.4-.8-3 0-3.6 2.5-4.1 3.3-.8zm-18.8.8c.3.5-.1 1-.9 1-.9 0-1.6-.5-1.6-1 0-.6.4-1 .9-1 .6 0 1.3.4 1.6 1zm12.5 1c0 2.4-3.5 2.7-6.4.5-1.7-1.3-1.5-1.4 2-1.8 2.2-.2 4-.4 4.2-.5.1-.1.2.7.2 1.8zm55.7 1.4c-.5 1.6-2.7 1.9-2.7.3 0-.7.7-1.4 1.5-1.4.9 0 1.4.5 1.2 1.1zm-95.2.6c.4.7-.3.8-2.2.4-3.8-.9-4.2-1.4-1-1.4 1.4 0 2.9.5 3.2 1zm-157.2 1.9c9.2 2.4 14.1 4.8 20.2 10.1 2.5 2.2 5.2 4 6 4 .9 0 1.6 1.7 2 4.7.3 2.7 1 7.2 1.4 10.1.4 2.9.4 5.5 0 5.8-.5.3-2.9.2-5.4-.2-4.9-.7-4.6-.9-6.5 6.2-2 8.2-10.8 13.4-25.9 15.6-19.3 2.7-40.8-7.2-45.5-20.9-2-5.9-2-8.7.1-14.8 3.1-9.2 13.3-16.8 27.7-20.5 9.2-2.4 16.5-2.5 25.9-.1zm191.4-.1c2.1 1.3-1.7 2.8-7.9 3-4.6.2-5.8-.1-5.8-1.3 0-1.8 1.2-1.9 2.8-.3 1 1 1.5 1 2.1-.1.5-.8 1.1-.9 1.5-.3.7 1.2 4.6.4 4.6-.9 0-1.1 1.1-1.1 2.7-.1zm-33.8 1.5c.8 1 .7 1.4-.4 1.4-.8 0-1.2-.4-.9-.8.2-.4-.2-1-.8-1.2-.8-.4-.9-.6-.2-.6.6-.1 1.7.5 2.3 1.2zm86.1.6c0 1.1-.4 2.2-.9 2.5-.5.3-.8-.6-.8-1.9 0-1.4.3-2.5.8-2.5s.9.9.9 1.9zm9.6 3c.1 4.1-.1 4.7-1.3 3.6-1.7-1.7-1.8-8.5 0-8.5.8 0 1.2 1.7 1.3 4.9zm-59.3-2.2c-.7.2-1.9.2-2.5 0-.7-.3-.2-.5 1.2-.5s1.9.2 1.3.5zm41.2 6.2c.5 1.6.4 2.1-.4 1.7-.6-.4-1.1-1.4-1.1-2.2 0-.8-.7-1.4-1.5-1.4-1.6 0-2-1.2-.8-2.4.9-.9 2.9 1.3 3.8 4.3zm7.5-1.9c0 .5-.2 1-.4 1-.3 0-.8-.5-1.1-1-.3-.6-.1-1 .4-1 .6 0 1.1.4 1.1 1zm4.8 6.1c-.3.8-.7.3-1.1-1-.4-1.7-.3-2.1.5-1.3.5.5.8 1.6.6 2.3zM382 774c.6 1.1.9 2 .8 2-.2 0-1.1-.9-2.1-2-.9-1.1-1.3-2-.7-2 .5 0 1.4.9 2 2zm-206.7 4.7c-.5 5.6-2.3 9.9-2.3 5.6 0-1.1-.3-4.1-.6-6.7-.6-4.2-.5-4.6 1.4-4.6s2 .4 1.5 5.7zm7-4.2c.4.8.2 1.7-.3 2-.6.4-1-.3-1-1.4 0-2.5.6-2.7 1.3-.6zm193.5 4c-.3.3-.9-.2-1.2-1.2-.6-1.4-.5-1.5.5-.6.7.7 1 1.5.7 1.8zm4.7.5c-.3.5-1 1-1.6 1-.5 0-.9-.5-.9-1 0-.6.7-1 1.6-1 .8 0 1.2.4.9 1zm13.4 6c0 3.3-.2 6-.6 6-.5 0-.8-1.7-.8-3.8 0-2-.3-4.2-.8-4.9-.5-.7-.6-1.7-.2-2.3 1.4-2.3 2.2-.7 2.4 5zm-17.4-4c.3.5.1 1-.4 1-.6 0-1.1-.5-1.1-1 0-.6.2-1 .4-1 .3 0 .8.4 1.1 1zm6.8 3c-.3 1.1-.9 1.7-1.5 1.4-.5-.3-.4-1.2.3-2 1.6-1.9 1.8-1.8 1.2.6zm-4.3 4.1c0 1.7-.6 2.8-1.8 3.1-2.2.6-2.3-2.9-.2-4.2 1.2-.7 1.1-1-.3-1.6-.9-.3-1.7-1-1.7-1.5s.9-.4 2 .3c1.2.8 2 2.4 2 3.9zm-200 6.2c-1.4 1.5-2-.8-1.3-4.9l.7-3.9.7 4c.4 2.2.4 4.4-.1 4.8zm210.4-6.6c-.3 3.6-.4 3.7-1.6 2.5-1.9-1.9-3.2-1.4-1.7.5 1.1 1.5 1.1 1.6-.1.6-2.4-2.2-1.9-4.9.9-4.8 1.5 0 2.6.6 2.5 1.2zm-225.8 14.1c-1.2 1.1-1.8-.7-1-3l.8-2.3.4 2.3c.2 1.3.1 2.6-.2 3zm17.4-1.4c0 .2-.9.6-2 .9-1.1.3-2 .1-2-.4s.9-.9 2-.9 2 .2 2 .4zm-89.8 8.9c15.9 15.8 35.2 17.5 65.5 5.8 8.5-3.3 21.2-7.1 23.8-7.1.8 0 1.8 1.2 2.1 2.7l.7 2.6 93.8-.7c92.8-.7 97.5-.6 94.3 2.4-.5.4-43.8 1-96.1 1.3l-95.3.6v-2.5c0-1.3-.3-2.4-.7-2.4-2.2.1-16.6 4.1-19 5.3-7.8 4-23.1 8-32.6 8.5-11.6.6-18.6-.7-27.2-5.1-6.9-3.4-17.8-13.9-16.9-16.2.4-.8.7-1.5.9-1.5.2 0 3.2 2.8 6.7 6.3z"/><path d="M301.4 751.6c.5 1.2.1 1.4-1.5.9-1.5-.5-1.9-.4-1.5.4 1.2 1.9 4.6 1.3 4.6-.9 0-1.1-.5-2-1.1-2-.6 0-.8.7-.5 1.6zM387 788c0 .5.5 1 1 1 .6 0 1-.5 1-1 0-.6-.4-1-1-1-.5 0-1 .4-1 1zM750.8 504.5c-1.6 3.5.5 5.7 5.1 5.3 2.9-.2 3.7-.8 3.9-2.6.5-3.2-1.5-5.2-4.9-5.2-2.2 0-3.2.7-4.1 2.5zM766.6 505c-5.7 4.3-7 6.5-5 8.4.9.9 3.2 1.6 5.4 1.6 9.3 0 9.2 2.7-.1 7.6-7.8 4.1-10.9 7.6-9.2 10.3.5.9 4.3 2.8 8.4 4.3 7.3 2.7 9.9 4.7 9.9 7.7 0 2.3-9.2 10.4-14.9 13-2.8 1.4-5.1 2.8-5.1 3.2 0 1.6 7.4 2.1 14.1 1 8.4-1.4 14.1-4.2 19.6-9.9 14-14.4 9.1-37.6-9.9-47.2-3.4-1.6-6.8-3-7.7-3-.9 0-3.3 1.4-5.5 3zM738.9 510.4c-4.7 2.3-3.1 7.6 2.2 7.6 3.4 0 5.5-3 4-5.9-1.4-2.6-3.4-3.1-6.2-1.7z"/><path d="M751.2 516.2c-1.9 1.9-1.4 4.6 1.3 6.4 2.3 1.5 2.7 1.5 5 0 2.8-1.8 3-2.8 1.5-5.7-1.2-2.2-5.9-2.6-7.8-.7zM730.2 525.2c-3 3-.3 7.2 4.4 6.6 3.4-.4 5.3-3.1 3.8-5.6-1.3-2.1-6.4-2.8-8.2-1zM747.2 530.6c-4 2.7-2.2 7.4 2.8 7.4s6.8-4.7 2.8-7.4c-1.2-.9-2.5-1.6-2.8-1.6-.3 0-1.6.7-2.8 1.6zM733.8 540.1c-1 .5-1.8 2.1-1.8 3.5 0 3.3 4 5.2 7.5 3.6 3-1.4 3.2-3.5.5-6.2-2.2-2.2-3.7-2.4-6.2-.9zM759.2 541.7c-4.4 1.8-3.1 8.3 1.6 8.3 5 0 6.9-4.2 3.4-7.3-1.9-1.7-2.8-1.9-5-1zM745.2 552.2c-2.8 2.8-.6 6.8 3.9 6.8 3.8 0 5.5-2.4 4.1-5.5-1.3-2.7-5.8-3.5-8-1.3zM674.2 590.2c-1.2 10-7.6 43.6-12.8 66.6-2.4 10.9-2.6 17.1-.3 13.1 1.7-3.1 12.7-56.3 15.4-74.6 1.8-12.5 1.9-15.3.2-15.3-.9 0-1.6 3.2-2.5 10.2zM192 597.5c-.7.9-.8 1.5-.2 1.5.5 0 1.2-.7 1.6-1.5.3-.8.4-1.5.2-1.5s-.9.7-1.6 1.5zM192 604.9c0 .5.7 1.1 1.4 1.4 1 .4 1.3.1.9-.9-.6-1.5-2.3-1.9-2.3-.5zM151.7 607.1c1.2 1.2 2.4 2.1 2.7 1.8.2-.2-.8-1.3-2.2-2.3l-2.7-1.9 2.2 2.4zM170.5 606c-.3.6.1.7.9.4 1.8-.7 2.1-1.4.7-1.4-.6 0-1.3.4-1.6 1zM184.3 607.7c0 1.5 3.3 1.8 4.1.4.3-.5-.5-1.1-1.7-1.3-1.5-.3-2.4 0-2.4.9zM90.5 615c.3.5.8 1 1.1 1 .2 0 .4-.5.4-1 0-.6-.5-1-1.1-1-.5 0-.7.4-.4 1zM125.2 635.8c-1.1 2.5-1.1 2.5.4 1 .9-.9 1.5-2.1 1.3-2.7-.2-.6-1 .2-1.7 1.7zM389 638.1c0 .5.5.7 1 .4.6-.3 1-.8 1-1.1 0-.2-.4-.4-1-.4-.5 0-1 .5-1 1.1zM112 642.4c0 .2.7.9 1.5 1.6.9.7 1.5.8 1.5.2 0-.5-.7-1.2-1.5-1.6-.8-.3-1.5-.4-1.5-.2zM117.3 649.5c-.9 2.4.1 2.7 1.5.5.8-1.3.8-2 .2-2-.6 0-1.3.7-1.7 1.5zM95 651.1c0 .5.5.7 1 .4.6-.3 1-.8 1-1.1 0-.2-.4-.4-1-.4-.5 0-1 .5-1 1.1zM111 656.1c0 .5.5.7 1 .4.6-.3 1-.8 1-1.1 0-.2-.4-.4-1-.4-.5 0-1 .5-1 1.1zM99.8 656.7c.7.3 1.6.2 1.9-.1.4-.3-.2-.6-1.3-.5-1.1 0-1.4.3-.6.6zM122.6 662.6c-.8 2.1-.8 2.1 1.2 2.6 2.5.7 4.3-1.4 2.6-3-1.8-1.6-3.1-1.5-3.8.4zM129.6 664.3c.3 1 .9 1.5 1.2 1.2.3-.3 0-1.1-.7-1.8-1-.9-1.1-.8-.5.6zM357.2 669.7c-9.2 7.8-15.1 14.3-22.1 24.3-5.9 8.5-9.7 12.7-10.6 11.8-.5-.5 4-6.9 16.8-23.7 9.6-12.8 10.3-13.9 8.2-14.7-3.4-1.4-15.4 9.3-27.8 24.8-7.9 9.9-11.7 13.8-11.7 12 0-.6 4.2-6 9.3-11.9 14.8-17.3 17.1-20.3 16.1-21.3-1.6-1.6-31.4 34.1-31.4 37.7 0 2.8.1 2.8 4.9.3 3.9-1.9 8.4-6.6 20.1-20.9 6.4-7.8 16.1-17 14.2-13.5-.6 1.2-4.1 5.9-7.8 10.5-14.2 17.9-18.4 26.3-12.2 24.3 4.5-1.3 7.8-4.6 14.3-14 6.3-9 21.2-25.1 22.2-24 .5.5-3.1 5.7-16.8 23.8-11.3 14.9-12.8 17.8-9.2 17.8 3.1 0 8.1-5 16.9-16.7 4.9-6.5 11.3-14.7 14.2-18.1 3.5-4.1 5.1-6.7 4.4-7.4-1.1-1.1-6.1 4.3-18.3 20.4-5 6.5-9.2 11.8-9.5 11.8-.8 0 .4-1.7 11.2-16 9.7-13 14.4-19.8 14.4-21.1 0-.4-.7-.9-1.5-1.3-1-.3-4.1 1.6-8.3 5.1zM384.1 665.4c-2 2.3-.8 4.2 4.9 7.7 2.7 1.7 5 3.5 5 4s-2.3-.5-5-2.2c-2.8-1.7-6.8-3.3-9-3.6-3.5-.5-4-.3-4 1.5 0 2.3 5.1 6.8 14.3 12.6 5.7 3.5 7.7 4.3 7.7 2.8-.1-1.2-2.7-4.2-3.7-4.2-1.3 0-13-7.8-13.9-9.2-1.2-1.9 3.9.3 10 4.4 4.4 2.8 6.1 3.5 6.7 2.6.4-.7.3-1.8-.2-2.5-.6-.6-.8-2.1-.4-3.3.5-1.6 0-2.2-2.1-3-4-1.6-8.5-5-7.9-6.1 1.1-1.7 4.2-.9 6.9 1.8 2 2 2.9 2.4 3.8 1.5 2-2-2.3-5.3-7.4-5.9-3.2-.4-4.7-.1-5.7 1.1zM284.8 666c-2.2 1.3-2.3 4.3-.3 6 .8.6 6.2 3.7 12.1 6.8 5.9 3.2 10.9 6.3 11.2 7 .5 1.5-5.4-1-11.3-4.9-11.9-7.8-18.3-10.1-20.6-7.3-1.2 1.5-.9 2.1 3.1 5.6l4.5 3.9-3.7-1.6c-5-2-9.1-1.9-11.8.3-1.9 1.6-2.1 2.2-1.1 4 1.1 2.1 1 2.2-2.3 2.2-8 0-5.5 3.9 8.4 13.1 6.1 3.9 10.9 7.4 10.7 7.6-.5.5-7.6-2.6-17.9-7.7-7.4-3.6-9.8-4.2-9.8-2.1 0 1 20.7 10.8 29 13.7 6.8 2.4 9.5 1.9 7.4-1.4-.6-.9-6.9-5.5-14-10.2-13.4-8.9-17.7-13.2-8.4-8.5 2.8 1.4 9.3 5.3 14.3 8.6 9.3 6 13.3 7.2 14.4 4.3 1.1-3-3.5-6.9-15.7-13.4-13-6.8-15.4-9-10-9 3.8 0 5.2.7 14.6 7.5 8.5 6.1 15.7 8.6 18 6.3 1.9-1.9.5-3.2-13.9-12.4-6.1-3.9-11.3-7.6-11.5-8.3-.5-1.5 4.2.8 15.9 7.8 8.8 5.3 14.4 6.6 15.6 3.6.9-2.5-2.3-5.1-13.6-11.1-10.8-5.7-12.9-7.3-10.9-8.5 1.7-1 3.6-.1 11.1 5.4 3.8 2.7 8.5 5.6 10.5 6.3 5.2 1.8 12.6 1.8 14.2-.1 1.8-2.2-.9-4.9-8.4-8.5-7.4-3.5-8.7-3.8-9.3-2.4-.2.6 1.5 1.9 3.9 2.9 2.4.9 5.8 2.6 7.7 3.7 2.8 1.8 3.1 2.2 1.7 3-2.7 1.5-9.7-1.1-17.9-6.9-8-5.6-12.8-7.2-15.9-5.3zm10 23.8c2.9 1.9 5 3.7 4.8 4-.7.7-8.6-4.2-12.6-7.8-3.3-3-3.4-3.1-.5-1.4 1.7.9 5.4 3.3 8.3 5.2zm-6.9 7.9c3.6 2.1 6.6 4.4 6.9 5.1.6 1.8-2.3.3-9.7-4.9-6.9-5-5.5-5 2.8-.2zM76 668.1c0 .5.5.7 1 .4.6-.3 1-.8 1-1.1 0-.2-.4-.4-1-.4-.5 0-1 .5-1 1.1zM126 671.1c0 .5.5.7 1 .4.6-.3 1-.8 1-1.1 0-.2-.4-.4-1-.4-.5 0-1 .5-1 1.1zM131.1 671c.1 2.4 1.5 5.5 2.1 4.4.2-.5-.1-2-.8-3.4-.8-1.4-1.3-1.8-1.3-1zM367.9 680.6c-1 1.2-1 2-.1 3.5 1.7 2.7 1.6 2.9-2.5 2.6-2.8-.1-3.8.2-4.1 1.5-.4 2.2 2.6 5 14.2 12.5 5.4 3.5 9.6 6.6 9.4 6.9-.6.5-9.4-3.3-19.1-8.2-7.1-3.6-8.7-4-8.7-2.4 0 2.4 32.6 16.8 35.5 15.6 3-1.1-.2-4.1-14-13.1-12.5-8.2-15.2-10.5-12.4-10.5 1.5 0 10.2 5 20.7 11.8 8.3 5.4 11.4 6.1 12 2.9.7-3.6-2.9-6.6-15.8-13.3-12.5-6.4-14.9-8.5-10.2-9.2 2.7-.4 8.2 2.5 16.2 8.6 6.1 4.7 8.8 5.4 7.5 2-.3-.8-1.7-2-3-2.6-1.3-.6-5.1-3.1-8.5-5.6-5.3-3.9-6.9-4.6-11-4.6-3.1 0-5.2.5-6.1 1.6zm26.6 19.4c.4.6.4 1.4.1 1.7-.6.6-14.6-8.3-14.6-9.2 0-.8 13.8 6.3 14.5 7.5zM632.5 698.5c-10.2 1.8-24.1 6-32 9.5-16.8 7.5-34 20.7-41 31.4-1.6 2.4-1.6 2.7.5 5.6 1.2 1.7 2 3.7 1.7 4.4-.7 1.7 2.6 6.7 12.9 19.1 12.2 14.9 35.3 37.1 36.8 35.4.2-.2 1.1-1.9 2-3.6 1.3-2.6 1.4-3.6.4-5.2-.9-1.6-.7-2.9 1.5-7.8 7.7-17.2 19.2-48.1 26.7-71.9 4-12.4 4.3-13.1 7.3-14 3.4-1 3.9-3 .7-2.8-1.1 0-2-.3-2-.8 0-1.1-7.3-.8-15.5.7zm-54 68.2c3.7 4.3 11.1 12.3 16.4 17.7 5.3 5.4 8.7 9.4 7.5 8.8-4.1-2.1-33.2-34.2-31.1-34.2.3 0 3.5 3.5 7.2 7.7zM352.9 704.9c.7 1.2 2.1 2.1 3.4 2 2.2-.1 2.2-.1-.1-.7-1.3-.4-2.3-1.1-2.2-1.7.1-.5-.4-1.1-1-1.3-.9-.3-.9.1-.1 1.7zM347.9 707.7c-1.3 1.6-1.2 1.7.4.4 1.6-1.3 2.1-2.1 1.3-2.1-.2 0-1 .8-1.7 1.7z"/><path d="M351 707.4c0 .9 1.5 2.4 3.4 3.3 1.9.8 3.9 2.6 4.5 3.9.6 1.3 1.4 2.4 1.8 2.3 2-.3 2.7.2 1.4 1-1.1.7-2 .3-3.3-1.1-1-1.2-1.8-1.6-1.8-1 0 .6.5 1.4 1 1.7.6.4.8 1.1.5 1.6-.4.5-.2.9.4.9.6 0 .8.6.5 1.4-.3.8-.1 1.7.5 2.1.6.3 1.1.1 1.1-.5s.9-.2 2.1.9c2.6 2.4 3.2 6.8 1 7.4-1.6.4-2-.5-2.1-5.7-.1-1.7-.2-1.7-1.7.4-1.3 1.8-1.3 2.4-.2 3.1.7.4 1.1 1 .8 1.3-.3.3-1.5-.3-2.6-1.3-1.4-1.3-2.4-1.6-3.1-.9-1.2 1.2-5.2.1-5.2-1.3 0-.7 1.2-.8 3.1-.4l3 .7-1.5-3.7c-.9-2.1-1.6-4-1.6-4.2 0-.3-.7-.3-1.5.1-.8.3-1.5.1-1.5-.3 0-.5.6-1.1 1.3-1.4.6-.2.8-.8.4-1.3-.5-.5-1.5-.1-2.2 1-1.5 2-.4 5.8 1.7 5.3.6-.1 1.3.5 1.5 1.3.3 1.1.2 1.2-.4.2-.7-.9-1.4-.7-3.1 1.1l-2.2 2.3 3.5 1.3c1.9.7 3.9 1 4.4.7 1.2-.8 3.4 2 2.7 3.3-.3.5-.1 1.1.5 1.3 1.7.6 1.7 7.8 0 7.8-1 0-1.2-.8-.7-3 .3-1.7.1-3-.4-3-1.2 0-2.2 3.4-1.4 5.4.6 1.7 3.9 2.2 4.8.7.3-.4 2.4-.7 4.7-.5 3.2.2 3.9 0 3.5-1.2-.3-.9.1-1.4 1.4-1.4 1.1 0 2-.5 2-1.1 0-.5-.4-.7-1-.4-.5.3-1 .2-1-.3s.9-1.2 2-1.5c1.3-.3 2 0 2 .8 0 .7.3 2.1.6 3 .4.9.3 1.5-.2 1.3-1.3-.4-7.4 2.5-7.4 3.5 0 .4-1 .3-2.2-.4-1.9-1-2-.9-1.3.7.4 1.1.7 2.8.7 3.9l-.1 2 1.1-2c2-3.4 3.8-4.7 5.5-4 1.5.5 1.5.7.3 1.6-1.2.9-1.2 1 .3.5 1-.3 2.1-.6 2.3-.6.3 0 .2-.5-.1-1-.3-.6-.3-1.4 0-2 .9-1.4 4.5 1.1 4.5 3.1 0 .9.7 1.9 1.5 2.3.9.3 1.2 1.2.9 2.3-.5 1.6-.4 1.6.5.1 1.1-1.7.5-4.8-.9-4.8-.4 0-1-.9-1.3-2-.3-1.1-.1-1.8.3-1.5.5.3 1.1-.1 1.3-.7.3-.7.6-.1.6 1.5.1 1.9.8 3.1 2.6 3.9 2.6 1.2 3.6 3.4 1 2.5-1.7-.7-3 .9-1.4 1.8.6.4 1.6.2 2.2-.4 1.4-1.4 4-1.5 3.2-.1-.3.5.1 1 1 1 1.2 0 1.5-.5 1.1-1.6-.3-.8.2-2.3 1.1-3.2 1.6-1.6 1.6-1.6 1 0-.4 1.1-.2 1.8.5 1.8s.6.5-.2 1.5c-1 1.2-.9 1.5.4 1.5s1.6-.8 1.2-3.6c-.2-2-1-4-1.7-4.5-.8-.5-1.3-2.1-1.1-4 .3-2.1 0-2.9-.7-2.5-.6.4-1.1 1.7-1.1 2.9 0 1.8-.2 1.9-1 .7s-1-1.3-1-.1c0 .8.7 2.3 1.7 3.3 1.8 2 .4 2.5-1.5.6-.6-.6-1.5-.8-1.9-.4-.4.4 0 1.2 1 1.7 2.7 1.5 2 3-.8 1.7-1.4-.6-2.5-1.5-2.5-2s-.6-.6-1.2-.2c-1 .6-1 .5-.1-.7.7-.8 1-2.6.7-4-.4-1.6-.3-2 .4-1.1.7 1.1 1.2 1 2.6-.3 1.9-1.9 2.1-4.5.4-4.5-.6 0-.8-.3-.5-.6.4-.4 1.3-.2 2.1.5 1.1.9 1.5.7 2-1.1 1.5-5.8-.1-8.7-3.2-5.6-.8.8-1.2.9-1.2.1 0-.6.6-1.3 1.3-1.6.6-.2.9-.8.5-1.2-.5-.5-1.7 0-2.8 1-1.6 1.4-1.8 2.1-.8 2.8.9.6.6.6-.7.2-1.1-.4-2.6-.8-3.2-.8-.7 0-1.3-.4-1.3-.9s.6-.8 1.3-.7c.6.1 1.9.1 2.7 0 1.3-.1 1.3-.2 0-1.1-1-.6-1.1-1-.2-1 .6 0 1.2-.5 1.2-1.1 0-.6-.9-.9-2-.6-1.6.4-2 0-2-2.1 0-1.5-.3-3.8-.7-5.2-.6-2.2-.5-2.4 1-1.2.9.8 2.2 1.2 2.9.9.7-.2-.4-1.2-2.6-2.1-4.8-2-4.6-2.1-4 1 .3 1.6.1 2.3-.6 1.9-.5-.3-1-.1-1 .4 0 .6.9 1.1 2 1.1 1.7 0 1.9.2.8 1.4-1.5 1.6-4 1.5-4.6-.2-.2-.6-1.9-1.4-3.8-1.8-1.8-.3-3.1-1-2.8-1.6.3-.5 1.4-.6 2.5-.3 1.1.4 1.9.2 1.9-.4 0-.6-.9-1.1-2.1-1.1-1.4 0-1.8-.4-1.2-1.3 1.2-1.9 1.2-3.8.1-3.1-.6.4-1.4 0-1.9-.7-.6-.9-.7 0-.3 2.3.3 2.4.1 3.8-.5 3.8s-1.1-.8-1.1-1.8c0-.9-.4-1.3-.8-.7-1.2 1.7-4.1 1.4-4.7-.6-.4-1.1-1.3-1.9-2.2-1.9-.9 0-2.4-1-3.4-2.2-1.6-1.7-1.9-1.8-1.9-.4zm22.4 13.6c2.2 1.7 3.4 3 2.8 3-1.4 0-1.2 2.1.3 3.3.6.5.4.7-.5.4-.8-.2-1.4-.9-1.3-1.6.4-1.4-3.9-4.2-6.6-4.4-1.2-.1-2.1-.2-2.1-.3 0-1.3 1.5-3.4 2.4-3.4.6 0 2.9 1.4 5 3zm-3 6.9c0 1.7.4 2 2 1.6 1.9-.5 1.9-.5-.2.7-1.8 1.1-2 1.6-1 2.7 1.1 1.1.9 1.2-.9.6-1.9-.5-2.2-.3-1.7 1.2.5 1.5.4 1.6-.5.3-1-1.3-1.5-.8-1.2 1.2 0 .5-.5.8-1.1.8-1 0-1 .2 0 .9 1 .6.9 1-.7 1.4-1.8.4-2.7-.3-1.8-1.7.1-.3-.9-1.7-2.3-3.2l-2.5-2.8 2.7 1.7c3.2 2 5.1 1.5 6.7-1.9.6-1.5.7-2.3.1-1.9-.5.3-1 .1-1-.4 0-.6.7-1.1 1.6-1.1 1.4 0 1.5-.2.3-1.7-1.2-1.4-1.2-1.6.1-1.1.8.3 1.5 1.5 1.4 2.7zm10.3-2.3c-.3.3-1.2.4-1.9.1-.8-.3-.5-.6.6-.6 1.1-.1 1.7.2 1.3.5zm-1.1 4.4c.8 0 1.4.5 1.4 1.1 0 1.2-4 .2-5.5-1.4-.7-.7-.4-.8.8-.3 1 .3 2.5.6 3.3.6zm9 2.7c-1.1 1.1-1.9-.6-1.1-2.4.8-1.7.8-1.7 1.2 0 .3 1 .2 2.1-.1 2.4zm-11.6-.2c1.6 1.9 0 1.9-2.6 0-1.6-1.2-1.6-1.4-.3-1.5.9 0 2.2.7 2.9 1.5zm4.1 1.4c-.9.6-1 1.1-.2 1.5.6.4 1.1 1.2 1.1 1.7 0 .6-.4.7-1 .4-.5-.3-1 .1-1 .9 0 .9-.3 1.6-.7 1.6-1.5-.1-4.3-2.7-4.3-4 0-.9.6-.7 2 .5 1.9 1.8 2 1.7 2-.2 0-2.2.8-3.3 2.4-3.3.6 0 .5.4-.3.9zm3.3.6c.3.8.1 1.5-.4 1.5-.6 0-1-.7-1-1.5s.2-1.5.4-1.5.6.7 1 1.5zm-7.7 7.7c-.3.8-.6.5-.6-.6-.1-1.1.2-1.7.5-1.3.3.3.4 1.2.1 1.9z"/><path d="M361 710c-.8.5-1.2 1.1-1 1.4.3.2 1.4-.2 2.4-1 2.2-1.5 1-1.9-1.4-.4zM343.1 712.2c-1.3 2.2-1.3 2.2.4.8 1.7-1.4 1.7-1.3 1 1-.6 2-.5 2.3.6 1.3.8-.9.9-1.9.3-3.3-.9-2-.9-2-2.3.2zM371.1 711.2c-.1 1 .4 1.8 1 1.8s.9.7.5 1.5c-.3.8-.2 1.5.3 1.5s1.1-.9 1.4-2c.3-1.3 0-2-.8-2-.7 0-1.6-.6-1.8-1.3-.3-.7-.6-.5-.6.5zM351 713.2c0 .4.7.8 1.5.8s1.5-.4 1.5-.8c0-.5-.7-.9-1.5-.9s-1.5.4-1.5.9zM340 716.1c0 .5-.3.8-.8.5-.4-.2-1.6.2-2.7 1s-1.3 1.4-.6 1.4c.8 0 1.1.6.7 1.5-.3.9 0 1.5 1 1.5.9 0 1.3-.5.9-1.3-.4-.6.1-.3 1 .8 1.7 2 1.7 1.9 1.1-.8-.4-1.7-.2-3.5.5-4.3.8-1 .8-1.4 0-1.4-.6 0-1.1.5-1.1 1.1zM384.6 717.7c-.4 1.4-1.2 2-2.2 1.6-.8-.3-1.4.1-1.4 1.1 0 1.6 2 1.8 3.1.2.4-.5 1.2-.5 1.8-.1.9.5.9 1 0 2.1-.7.8-.7 1.4-.1 1.4.5 0 1.5-.6 2.1-1.4 1-1.1.9-1.6-.2-2.3-.8-.4-1.7-1.7-1.9-2.8-.4-1.9-.4-1.9-1.2.2z"/><path d="M342.3 718c.6 2-1.1 6.3-2.2 5.6-.5-.3-1.1.3-1.4 1.3-.5 2 .9 4.1 2.7 4.1.5 0 .1-.7-1-1.6-1.8-1.5-1.8-1.5.9-1.1 2.3.4 2.5.2 1.5-1s-.9-1.7.5-2.4c.9-.6 1.7-1.6 1.7-2.4 0-.7.3-1.5.8-1.8.4-.2.1-.2-.7 0-.8.2-1.9-.2-2.4-.9-.7-1-.8-.9-.4.2zM389 718c0 .6.7 1 1.5 1s1.5-.2 1.5-.4-.7-.6-1.5-1c-.8-.3-1.5-.1-1.5.4zM355.6 722.4c1.5 4.4 2.7 5.6 3.8 3.7.3-.5-.1-1.4-.9-2.1-.8-.7-1.5-1.8-1.5-2.5s-.7-1.8-1.5-2.5c-1.2-1-1.2-.5.1 3.4zM392.2 722.3c-2.7 2.9-2.7 3.3-.2 4 1.4.3 2 1.4 2 3.2 0 1.8-.4 2.4-1.2 1.9-.9-.5-.9-.3.1.9.7.9 1.1 2.6.8 3.7-.3 1.1-.1 2.3.4 2.6.5.3.9-3.6.9-9 0-5.3-.1-9.6-.3-9.6-.2 0-1.3 1-2.5 2.3zM346 723.5c0 .8.5 1.5 1 1.5.6 0 1-.7 1-1.5s-.4-1.5-1-1.5c-.5 0-1 .7-1 1.5zM342.1 730.1c-1.8 1.5-2.1 2.3-1.3 3.1.9.9 1.2.8 1.2-.5 0-2.2 1.6-2.2 2.9 0 1 1.7 1 1.6 1.1-.2 0-1.7.2-1.7 1-.5.6 1 1 1.1 1 .2 0-2.2-.2-2.7-1.1-2.5-.5.2-.9-.2-.9-.7 0-1.5-1.2-1.2-3.9 1.1zM343 736c0 .5.5 1 1 1 .6 0 1-.5 1-1 0-.6-.4-1-1-1-.5 0-1 .4-1 1zM393 742c0 .5.5 1 1 1 .6 0 1-.5 1-1 0-.6-.4-1-1-1-.5 0-1 .4-1 1zM360.6 744.5c-.6 1.6-.9 1.7-1.6.5-.5-.8-1.2-1.1-1.5-.8-.4.4-.1 1.3.6 2.1 1.1 1.2 1.6 1.2 2.7 0 .7-.7 1.2-1.9 1-2.5-.3-.7-.7-.4-1.2.7zM361.6 748.3c.3 1 .9 1.5 1.2 1.2.3-.3 0-1.1-.7-1.8-1-.9-1.1-.8-.5.6zM352 749.8c0 3.2 1.2 4 4.3 3.1 2.1-.6 3.3-.5 3.8.2.5.8 1.4.7 3-.5l2.3-1.6-3.4-.2c-1.9 0-4.3 0-5.4.1-1 0-2.5-.4-3.2-1-.9-.7-1.4-.8-1.4-.1zM380.5 754.1c-.4.6-.5 1.3-.2 1.6.7.7 2.7-.6 2.7-1.8 0-1.2-1.7-1.2-2.5.2zM369.8 756.7c1.2.2 3.2.2 4.5 0 1.2-.2.2-.4-2.3-.4s-3.5.2-2.2.4zM787.2 792.7c-3.4 14.6-9.1 41.7-8.9 42 .1 0 8.4.4 18.5.8l18.2.7v-6.1c0-5.6-.2-6.2-2.4-7.1-5.4-2-11.1-13-17.7-34.3-1.7-5.3-3.4-9.7-3.8-9.7-.4 0-2.2 6.2-3.9 13.7zM746.5 800.7c-.9 3.2-2.4 8-3.4 10.8-2 5.3-6.1 20.3-6.1 22.3 0 .9 4 1.2 14.6 1.2 8 0 14.4-.3 14.2-.8-.2-.4-1.7-3.4-3.4-6.7-3.8-7.3-8.5-18.9-10.8-26.8-.9-3.1-2.1-5.7-2.6-5.7s-1.6 2.6-2.5 5.7zM699.5 805.2c-3 1.7-13.1 10.3-21.9 18.9l-7.9 7.6 7.7 1.2c8.5 1.2 34.6 1.5 34.6.3 0-.4-2-6.5-4.5-13.5-2.4-7.1-4.4-13.3-4.2-13.9.3-1.6-1.5-1.9-3.8-.6z"/></svg>